<svg width="125" height="51" viewBox="0 0 125 51" fill="none" xmlns="http://www.w3.org/2000/svg">
<path d="M4.875 12V30H1.48828V12H4.875ZM14.5078 27.1406V21.4922C14.5078 21.0859 14.4414 20.7383 14.3086 20.4492C14.1758 20.1523 13.9688 19.9219 13.6875 19.7578C13.4141 19.5938 13.0586 19.5117 12.6211 19.5117C12.2461 19.5117 11.9219 19.5781 11.6484 19.7109C11.375 19.8359 11.1641 20.0195 11.0156 20.2617C10.8672 20.4961 10.793 20.7734 10.793 21.0938H7.41797C7.41797 20.5547 7.54297 20.043 7.79297 19.5586C8.04297 19.0742 8.40625 18.6484 8.88281 18.2812C9.35938 17.9062 9.92578 17.6133 10.582 17.4023C11.2461 17.1914 11.9883 17.0859 12.8086 17.0859C13.793 17.0859 14.668 17.25 15.4336 17.5781C16.1992 17.9062 16.8008 18.3984 17.2383 19.0547C17.6836 19.7109 17.9062 20.5312 17.9062 21.5156V26.9414C17.9062 27.6367 17.9492 28.207 18.0352 28.6523C18.1211 29.0898 18.2461 29.4727 18.4102 29.8008V30H15C14.8359 29.6562 14.7109 29.2266 14.625 28.7109C14.5469 28.1875 14.5078 27.6641 14.5078 27.1406ZM14.9531 22.2773L14.9766 24.1875H13.0898C12.6445 24.1875 12.2578 24.2383 11.9297 24.3398C11.6016 24.4414 11.332 24.5859 11.1211 24.7734C10.9102 24.9531 10.7539 25.1641 10.6523 25.4062C10.5586 25.6484 10.5117 25.9141 10.5117 26.2031C10.5117 26.4922 10.5781 26.7539 10.7109 26.9883C10.8438 27.2148 11.0352 27.3945 11.2852 27.5273C11.5352 27.6523 11.8281 27.7148 12.1641 27.7148C12.6719 27.7148 13.1133 27.6133 13.4883 27.4102C13.8633 27.207 14.1523 26.957 14.3555 26.6602C14.5664 26.3633 14.6758 26.082 14.6836 25.8164L15.5742 27.2461C15.4492 27.5664 15.2773 27.8984 15.0586 28.2422C14.8477 28.5859 14.5781 28.9102 14.25 29.2148C13.9219 29.5117 13.5273 29.7578 13.0664 29.9531C12.6055 30.1406 12.0586 30.2344 11.4258 30.2344C10.6211 30.2344 9.89062 30.0742 9.23438 29.7539C8.58594 29.4258 8.07031 28.9766 7.6875 28.4062C7.3125 27.8281 7.125 27.1719 7.125 26.4375C7.125 25.7734 7.25 25.1836 7.5 24.668C7.75 24.1523 8.11719 23.7188 8.60156 23.3672C9.09375 23.0078 9.70703 22.7383 10.4414 22.5586C11.1758 22.3711 12.0273 22.2773 12.9961 22.2773H14.9531ZM23.8828 20.0859V30H20.5078V17.3203H23.6836L23.8828 20.0859ZM27.7031 17.2383L27.6445 20.3672C27.4805 20.3438 27.2812 20.3242 27.0469 20.3086C26.8203 20.2852 26.6133 20.2734 26.4258 20.2734C25.9492 20.2734 25.5352 20.3359 25.1836 20.4609C24.8398 20.5781 24.5508 20.7539 24.3164 20.9883C24.0898 21.2227 23.918 21.5078 23.8008 21.8438C23.6914 22.1797 23.6289 22.5625 23.6133 22.9922L22.9336 22.7812C22.9336 21.9609 23.0156 21.207 23.1797 20.5195C23.3438 19.8242 23.582 19.2188 23.8945 18.7031C24.2148 18.1875 24.6055 17.7891 25.0664 17.5078C25.5273 17.2266 26.0547 17.0859 26.6484 17.0859C26.8359 17.0859 27.0273 17.1016 27.2227 17.1328C27.418 17.1562 27.5781 17.1914 27.7031 17.2383ZM37.0898 17.3203H40.1484V29.5781C40.1484 30.7344 39.8906 31.7148 39.375 32.5195C38.8672 33.332 38.1562 33.9453 37.2422 34.3594C36.3281 34.7812 35.2656 34.9922 34.0547 34.9922C33.5234 34.9922 32.9609 34.9219 32.3672 34.7812C31.7812 34.6406 31.2188 34.4219 30.6797 34.125C30.1484 33.8281 29.7031 33.4531 29.3438 33L30.832 31.0078C31.2227 31.4609 31.6758 31.8125 32.1914 32.0625C32.707 32.3203 33.2773 32.4492 33.9023 32.4492C34.5117 32.4492 35.0273 32.3359 35.4492 32.1094C35.8711 31.8906 36.1953 31.5664 36.4219 31.1367C36.6484 30.7148 36.7617 30.2031 36.7617 29.6016V20.25L37.0898 17.3203ZM28.5586 23.8125V23.5664C28.5586 22.5977 28.6758 21.7188 28.9102 20.9297C29.1523 20.1328 29.4922 19.4492 29.9297 18.8789C30.375 18.3086 30.9141 17.8672 31.5469 17.5547C32.1797 17.2422 32.8945 17.0859 33.6914 17.0859C34.5352 17.0859 35.2422 17.2422 35.8125 17.5547C36.3828 17.8672 36.8516 18.3125 37.2188 18.8906C37.5859 19.4609 37.8711 20.1367 38.0742 20.918C38.2852 21.6914 38.4492 22.5391 38.5664 23.4609V24C38.4492 24.8828 38.2734 25.7031 38.0391 26.4609C37.8047 27.2188 37.4961 27.8828 37.1133 28.4531C36.7305 29.0156 36.2539 29.4531 35.6836 29.7656C35.1211 30.0781 34.4492 30.2344 33.668 30.2344C32.8867 30.2344 32.1797 30.0742 31.5469 29.7539C30.9219 29.4336 30.3867 28.9844 29.9414 28.4062C29.4961 27.8281 29.1523 27.1484 28.9102 26.3672C28.6758 25.5859 28.5586 24.7344 28.5586 23.8125ZM31.9336 23.5664V23.8125C31.9336 24.3359 31.9844 24.8242 32.0859 25.2773C32.1875 25.7305 32.3438 26.1328 32.5547 26.4844C32.7734 26.8281 33.043 27.0977 33.3633 27.293C33.6914 27.4805 34.0781 27.5742 34.5234 27.5742C35.1406 27.5742 35.6445 27.4453 36.0352 27.1875C36.4258 26.9219 36.7188 26.5586 36.9141 26.0977C37.1094 25.6367 37.2227 25.1055 37.2539 24.5039V22.9688C37.2383 22.4766 37.1719 22.0352 37.0547 21.6445C36.9375 21.2461 36.7734 20.9062 36.5625 20.625C36.3516 20.3438 36.0781 20.125 35.7422 19.9688C35.4062 19.8125 35.0078 19.7344 34.5469 19.7344C34.1016 19.7344 33.7148 19.8359 33.3867 20.0391C33.0664 20.2344 32.7969 20.5039 32.5781 20.8477C32.3672 21.1914 32.207 21.5977 32.0977 22.0664C31.9883 22.5273 31.9336 23.0273 31.9336 23.5664ZM48.6094 30.2344C47.625 30.2344 46.7422 30.0781 45.9609 29.7656C45.1797 29.4453 44.5156 29.0039 43.9688 28.4414C43.4297 27.8789 43.0156 27.2266 42.7266 26.4844C42.4375 25.7344 42.293 24.9375 42.293 24.0938V23.625C42.293 22.6641 42.4297 21.7852 42.7031 20.9883C42.9766 20.1914 43.3672 19.5 43.875 18.9141C44.3906 18.3281 45.0156 17.8789 45.75 17.5664C46.4844 17.2461 47.3125 17.0859 48.2344 17.0859C49.1328 17.0859 49.9297 17.2344 50.625 17.5312C51.3203 17.8281 51.9023 18.25 52.3711 18.7969C52.8477 19.3438 53.207 20 53.4492 20.7656C53.6914 21.5234 53.8125 22.3672 53.8125 23.2969V24.7031H43.7344V22.4531H50.4961V22.1953C50.4961 21.7266 50.4102 21.3086 50.2383 20.9414C50.0742 20.5664 49.8242 20.2695 49.4883 20.0508C49.1523 19.832 48.7227 19.7227 48.1992 19.7227C47.7539 19.7227 47.3711 19.8203 47.0508 20.0156C46.7305 20.2109 46.4688 20.4844 46.2656 20.8359C46.0703 21.1875 45.9219 21.6016 45.8203 22.0781C45.7266 22.5469 45.6797 23.0625 45.6797 23.625V24.0938C45.6797 24.6016 45.75 25.0703 45.8906 25.5C46.0391 25.9297 46.2461 26.3008 46.5117 26.6133C46.7852 26.9258 47.1133 27.168 47.4961 27.3398C47.8867 27.5117 48.3281 27.5977 48.8203 27.5977C49.4297 27.5977 49.9961 27.4805 50.5195 27.2461C51.0508 27.0039 51.5078 26.6406 51.8906 26.1562L53.5312 27.9375C53.2656 28.3203 52.9023 28.6875 52.4414 29.0391C51.9883 29.3906 51.4414 29.6797 50.8008 29.9062C50.1602 30.125 49.4297 30.2344 48.6094 30.2344ZM59.1094 20.0859V30H55.7344V17.3203H58.9102L59.1094 20.0859ZM62.9297 17.2383L62.8711 20.3672C62.707 20.3438 62.5078 20.3242 62.2734 20.3086C62.0469 20.2852 61.8398 20.2734 61.6523 20.2734C61.1758 20.2734 60.7617 20.3359 60.4102 20.4609C60.0664 20.5781 59.7773 20.7539 59.543 20.9883C59.3164 21.2227 59.1445 21.5078 59.0273 21.8438C58.918 22.1797 58.8555 22.5625 58.8398 22.9922L58.1602 22.7812C58.1602 21.9609 58.2422 21.207 58.4062 20.5195C58.5703 19.8242 58.8086 19.2188 59.1211 18.7031C59.4414 18.1875 59.832 17.7891 60.293 17.5078C60.7539 17.2266 61.2812 17.0859 61.875 17.0859C62.0625 17.0859 62.2539 17.1016 62.4492 17.1328C62.6445 17.1562 62.8047 17.1914 62.9297 17.2383ZM71.3203 17.3203V19.7109H63.9375V17.3203H71.3203ZM65.7656 14.1914H69.1406V26.1797C69.1406 26.5469 69.1875 26.8281 69.2812 27.0234C69.3828 27.2188 69.5312 27.3555 69.7266 27.4336C69.9219 27.5039 70.168 27.5391 70.4648 27.5391C70.6758 27.5391 70.8633 27.5312 71.0273 27.5156C71.1992 27.4922 71.3438 27.4688 71.4609 27.4453L71.4727 29.9297C71.1836 30.0234 70.8711 30.0977 70.5352 30.1523C70.1992 30.207 69.8281 30.2344 69.4219 30.2344C68.6797 30.2344 68.0312 30.1133 67.4766 29.8711C66.9297 29.6211 66.5078 29.2227 66.2109 28.6758C65.9141 28.1289 65.7656 27.4102 65.7656 26.5195V14.1914ZM76.5352 12V30H73.1602V12H76.5352ZM76.0547 23.2148H75.1289C75.1367 22.332 75.2539 21.5195 75.4805 20.7773C75.707 20.0273 76.0312 19.3789 76.4531 18.832C76.875 18.2773 77.3789 17.8477 77.9648 17.543C78.5586 17.2383 79.2148 17.0859 79.9336 17.0859C80.5586 17.0859 81.125 17.1758 81.6328 17.3555C82.1484 17.5273 82.5898 17.8086 82.957 18.1992C83.332 18.582 83.6211 19.0859 83.8242 19.7109C84.0273 20.3359 84.1289 21.0938 84.1289 21.9844V30H80.7305V21.9609C80.7305 21.3984 80.6484 20.957 80.4844 20.6367C80.3281 20.3086 80.0977 20.0781 79.793 19.9453C79.4961 19.8047 79.1289 19.7344 78.6914 19.7344C78.207 19.7344 77.793 19.8242 77.4492 20.0039C77.1133 20.1836 76.8438 20.4336 76.6406 20.7539C76.4375 21.0664 76.2891 21.4336 76.1953 21.8555C76.1016 22.2773 76.0547 22.7305 76.0547 23.2148ZM93.5391 27.1406V21.4922C93.5391 21.0859 93.4727 20.7383 93.3398 20.4492C93.207 20.1523 93 19.9219 92.7188 19.7578C92.4453 19.5938 92.0898 19.5117 91.6523 19.5117C91.2773 19.5117 90.9531 19.5781 90.6797 19.7109C90.4062 19.8359 90.1953 20.0195 90.0469 20.2617C89.8984 20.4961 89.8242 20.7734 89.8242 21.0938H86.4492C86.4492 20.5547 86.5742 20.043 86.8242 19.5586C87.0742 19.0742 87.4375 18.6484 87.9141 18.2812C88.3906 17.9062 88.957 17.6133 89.6133 17.4023C90.2773 17.1914 91.0195 17.0859 91.8398 17.0859C92.8242 17.0859 93.6992 17.25 94.4648 17.5781C95.2305 17.9062 95.832 18.3984 96.2695 19.0547C96.7148 19.7109 96.9375 20.5312 96.9375 21.5156V26.9414C96.9375 27.6367 96.9805 28.207 97.0664 28.6523C97.1523 29.0898 97.2773 29.4727 97.4414 29.8008V30H94.0312C93.8672 29.6562 93.7422 29.2266 93.6562 28.7109C93.5781 28.1875 93.5391 27.6641 93.5391 27.1406ZM93.9844 22.2773L94.0078 24.1875H92.1211C91.6758 24.1875 91.2891 24.2383 90.9609 24.3398C90.6328 24.4414 90.3633 24.5859 90.1523 24.7734C89.9414 24.9531 89.7852 25.1641 89.6836 25.4062C89.5898 25.6484 89.543 25.9141 89.543 26.2031C89.543 26.4922 89.6094 26.7539 89.7422 26.9883C89.875 27.2148 90.0664 27.3945 90.3164 27.5273C90.5664 27.6523 90.8594 27.7148 91.1953 27.7148C91.7031 27.7148 92.1445 27.6133 92.5195 27.4102C92.8945 27.207 93.1836 26.957 93.3867 26.6602C93.5977 26.3633 93.707 26.082 93.7148 25.8164L94.6055 27.2461C94.4805 27.5664 94.3086 27.8984 94.0898 28.2422C93.8789 28.5859 93.6094 28.9102 93.2812 29.2148C92.9531 29.5117 92.5586 29.7578 92.0977 29.9531C91.6367 30.1406 91.0898 30.2344 90.457 30.2344C89.6523 30.2344 88.9219 30.0742 88.2656 29.7539C87.6172 29.4258 87.1016 28.9766 86.7188 28.4062C86.3438 27.8281 86.1562 27.1719 86.1562 26.4375C86.1562 25.7734 86.2812 25.1836 86.5312 24.668C86.7812 24.1523 87.1484 23.7188 87.6328 23.3672C88.125 23.0078 88.7383 22.7383 89.4727 22.5586C90.207 22.3711 91.0586 22.2773 92.0273 22.2773H93.9844ZM102.844 20.0273V30H99.4688V17.3203H102.633L102.844 20.0273ZM102.352 23.2148H101.438C101.438 22.2773 101.559 21.4336 101.801 20.6836C102.043 19.9258 102.383 19.2812 102.82 18.75C103.258 18.2109 103.777 17.8008 104.379 17.5195C104.988 17.2305 105.668 17.0859 106.418 17.0859C107.012 17.0859 107.555 17.1719 108.047 17.3438C108.539 17.5156 108.961 17.7891 109.312 18.1641C109.672 18.5391 109.945 19.0352 110.133 19.6523C110.328 20.2695 110.426 21.0234 110.426 21.9141V30H107.027V21.9023C107.027 21.3398 106.949 20.9023 106.793 20.5898C106.637 20.2773 106.406 20.0586 106.102 19.9336C105.805 19.8008 105.438 19.7344 105 19.7344C104.547 19.7344 104.152 19.8242 103.816 20.0039C103.488 20.1836 103.215 20.4336 102.996 20.7539C102.785 21.0664 102.625 21.4336 102.516 21.8555C102.406 22.2773 102.352 22.7305 102.352 23.2148Z" fill="black"/>
<path d="M121.348 15.5093C121.169 15.6965 120.966 15.8511 120.738 15.9731C120.51 16.0871 120.27 16.1603 120.018 16.1929C119.765 16.2173 119.525 16.1766 119.297 16.0708C119.078 15.965 118.886 15.8145 118.724 15.6191C118.374 15.2122 118.199 14.8013 118.199 14.3862C118.199 13.9712 118.264 13.6619 118.394 13.4585C118.532 13.2469 118.703 13.076 118.907 12.9458C119.297 12.6935 119.664 12.5674 120.005 12.5674C120.355 12.5674 120.624 12.5918 120.811 12.6406C121.006 12.6895 121.185 12.7708 121.348 12.8848C121.747 13.1533 121.946 13.4829 121.946 13.8735C121.946 14.256 121.889 14.5775 121.775 14.8379C121.67 15.0902 121.527 15.314 121.348 15.5093ZM118.846 28.7173C119.057 28.7173 119.163 28.8556 119.163 29.1323C119.163 29.4985 118.996 29.877 118.663 30.2676C118.174 30.8372 117.519 31.1221 116.697 31.1221C115.753 31.1221 115.106 30.7396 114.756 29.9746C114.626 29.7061 114.561 29.3805 114.561 28.998C114.561 28.6156 114.626 28.1924 114.756 27.7285C114.895 27.2565 115.062 26.7642 115.257 26.2515C115.46 25.7306 115.68 25.2057 115.916 24.6768L116.563 23.1387C117.035 21.9912 117.271 21.2344 117.271 20.8682C117.271 20.502 117.23 20.2619 117.149 20.1479C117.076 20.0259 116.994 19.9323 116.905 19.8672L116.661 19.6963C116.579 19.6393 116.539 19.5417 116.539 19.4033C116.539 19.2568 116.591 19.1185 116.697 18.9883C116.811 18.8581 116.958 18.7441 117.137 18.6465C117.503 18.4593 117.93 18.3657 118.418 18.3657C119.615 18.3657 120.213 18.679 120.213 19.3057C120.213 20.0381 120.022 20.8763 119.639 21.8203C119.257 22.7562 118.931 23.513 118.663 24.0908L117.93 25.7754C117.393 27.0124 117.125 27.9035 117.125 28.4487C117.125 28.8068 117.304 28.9858 117.662 28.9858C118.012 28.9858 118.276 28.9411 118.455 28.8516C118.634 28.762 118.764 28.7173 118.846 28.7173Z" fill="black"/>
</svg>
