<svg width="36" height="36" viewBox="0 0 36 36" fill="none" xmlns="http://www.w3.org/2000/svg">
<g filter="url(#filter0_d_1_865)">
<rect x="4" width="28" height="28" rx="4" fill="black"/>
<path d="M17.8822 12.2415C18.0516 12.3043 18.2177 12.1507 18.1616 11.9874C17.7763 10.8662 16.3814 10.4479 15.0848 11.4427C14.4027 11.966 14.1464 12.0772 14.1399 12.08C14.5896 12.5046 15.1033 13.9294 16.2244 14.087C17.4593 14.2984 18.5523 13.1509 17.6581 12.6258C17.07 12.2805 16.3776 12.0799 15.6353 12.0799C16.4134 11.9143 17.1902 11.9853 17.8822 12.2415Z" fill="#FFEBB9"/>
<path d="M23.4744 11.4426C21.2361 9.72543 19.8086 12.4334 20.6959 12.1649C21.3261 11.9743 22.0151 11.9328 22.7061 12.0799C21.5352 12.0799 20.4559 12.5867 19.7363 13.4116C19.7954 12.1152 19.8848 11.3038 19.9884 10.7002C20.5865 10.6808 21.3837 10.2246 21.8215 9.42644C22.5762 8.15082 22.2262 6.84289 22.1136 6.01758C21.5238 6.55993 18.9478 5.92444 17.9266 7.57717C17.4754 8.30725 17.6066 9.19567 18.0811 9.8458C18.2313 10.0516 18.5905 9.95286 18.6008 9.70309C18.6453 8.61656 19.2179 7.79566 20.2853 7.34098C19.8063 7.9271 19.4918 8.58331 19.3294 9.26154C19.0768 10.3181 18.8131 11.0111 18.7162 14.3786C18.7064 14.7201 18.9993 15.0028 19.361 14.9985C19.6229 14.9954 19.8472 14.8385 19.9479 14.6102C20.101 14.263 20.3503 13.9036 20.756 13.5743C21.1414 13.9767 21.728 14.1909 22.335 14.0869C23.4513 13.93 23.9723 12.5021 24.4194 12.0798C24.4128 12.0771 24.1565 11.9659 23.4744 11.4426Z" fill="#FFEBB9"/>
<path d="M26.7649 15.6384C26.0651 15.19 25.3035 15.5096 24.9538 15.7003L20.5647 18.7342L17.9947 18.7347L17.3523 18.128H19.7124C20.4222 18.128 21.2172 17.6913 21.2172 16.9141C21.2172 16.089 20.4222 15.7003 19.7124 15.7003H18.828C18.1709 15.7003 17.4031 15.7556 16.8618 15.4819C16.3474 15.2347 15.7551 15.0941 15.1229 15.0941C14.0612 15.0941 13.111 15.4938 12.4599 16.1242L9 19.341L12.8549 22.9817L14.1399 21.1614H20.2119C20.8595 21.1614 21.4846 20.937 21.9687 20.5308L26.8088 16.4701C27.0779 16.2444 27.0627 15.8293 26.7649 15.6384Z" fill="#FFEBB9"/>
</g>
<defs>
<filter id="filter0_d_1_865" x="0" y="0" width="36" height="36" filterUnits="userSpaceOnUse" color-interpolation-filters="sRGB">
<feFlood flood-opacity="0" result="BackgroundImageFix"/>
<feColorMatrix in="SourceAlpha" type="matrix" values="0 0 0 0 0 0 0 0 0 0 0 0 0 0 0 0 0 0 127 0" result="hardAlpha"/>
<feOffset dy="4"/>
<feGaussianBlur stdDeviation="2"/>
<feComposite in2="hardAlpha" operator="out"/>
<feColorMatrix type="matrix" values="0 0 0 0 0 0 0 0 0 0 0 0 0 0 0 0 0 0 0.25 0"/>
<feBlend mode="normal" in2="BackgroundImageFix" result="effect1_dropShadow_1_865"/>
<feBlend mode="normal" in="SourceGraphic" in2="effect1_dropShadow_1_865" result="shape"/>
</filter>
</defs>
</svg>
