<svg width="1280" height="32" viewBox="0 0 1280 32" fill="none" xmlns="http://www.w3.org/2000/svg">
<g opacity="0.6">
<path d="M21.3558 14.1377C20.9581 14.5381 20.6535 15.0213 20.4638 15.5529C20.274 16.0844 20.2038 16.6513 20.2581 17.2132L20.2392 17.1943C20.295 17.8556 20.2058 18.5212 19.978 19.1445C19.7502 19.7678 19.3891 20.3339 18.92 20.8032C18.451 21.2725 17.8852 21.6338 17.2622 21.8617C16.6391 22.0896 15.9739 22.1788 15.3129 22.123L15.3318 22.1419C14.5411 22.0683 13.7469 22.2404 13.0576 22.6349C12.3683 23.0294 11.8173 23.6269 11.4799 24.3462C11.1424 25.0654 11.0349 25.8712 11.172 26.6538C11.3091 27.4364 11.6841 28.1576 12.2459 28.7192C12.8076 29.2807 13.5289 29.6553 14.3112 29.7917C15.0935 29.9281 15.8989 29.8199 16.6174 29.4816C17.336 29.1433 17.9328 28.5916 18.3264 27.9016C18.7201 27.2115 18.8914 26.4168 18.8171 25.6258L18.8371 25.6447C18.7813 24.9834 18.8704 24.3178 19.0982 23.6945C19.3261 23.0711 19.6871 22.5051 20.1562 22.0358C20.6253 21.5665 21.191 21.2052 21.8141 20.9773C22.4371 20.7493 23.1023 20.6602 23.7633 20.716L23.7434 20.6971C24.3893 20.7552 25.0394 20.6493 25.6335 20.3891C26.2276 20.1289 26.7464 19.7228 27.1419 19.2086C27.5373 18.6944 27.7967 18.0886 27.8958 17.4474C27.995 16.8062 27.9308 16.1503 27.7091 15.5406C27.4874 14.9308 27.1155 14.3869 26.6278 13.9593C26.1401 13.5316 25.5524 13.234 24.9192 13.0942C24.2859 12.9543 23.6276 12.9766 23.0052 13.159C22.3829 13.3414 21.8166 13.6781 21.359 14.1377H21.3558Z" fill="#1D2130"/>
<path d="M13.6137 19.666L13.5938 19.6471C14.1556 19.7037 14.723 19.6347 15.2549 19.4451C15.7868 19.2554 16.2699 18.9499 16.6694 18.5506C17.0688 18.1513 17.3745 17.6681 17.5645 17.1361C17.7544 16.6041 17.8238 16.0365 17.7676 15.4743L17.7875 15.4932C17.7317 14.8319 17.8209 14.1663 18.0487 13.543C18.2765 12.9197 18.6376 12.3536 19.1067 11.8843C19.5757 11.415 20.1415 11.0538 20.7645 10.8258C21.3876 10.5979 22.0528 10.5087 22.7138 10.5645L22.6939 10.5456C23.4846 10.6199 24.2791 10.4484 24.9688 10.0544C25.6585 9.66033 26.21 9.06302 26.5479 8.34391C26.8859 7.6248 26.9939 6.81889 26.8572 6.03611C26.7205 5.25332 26.3458 4.53178 25.7842 3.96989C25.2226 3.408 24.5014 3.03311 23.719 2.89637C22.9366 2.75963 22.1311 2.86769 21.4123 3.20581C20.6936 3.54393 20.0966 4.09565 19.7027 4.78571C19.3089 5.47578 19.1374 6.27059 19.2117 7.06175L19.1928 7.04179C19.2488 7.70318 19.1598 8.36882 18.932 8.99223C18.7042 9.61564 18.3432 10.1818 17.8741 10.6511C17.405 11.1205 16.8391 11.4817 16.216 11.7096C15.5929 11.9375 14.9276 12.0265 14.2665 11.9705L14.2854 11.9904C13.7236 11.9338 13.1562 12.0028 12.6243 12.1924C12.0924 12.382 11.6093 12.6876 11.2098 13.0869C10.8104 13.4862 10.5047 13.9694 10.3147 14.5014C10.1248 15.0334 10.0554 15.601 10.1116 16.1631L10.0927 16.1442C10.1483 16.8056 10.0591 17.471 9.83118 18.0943C9.60328 18.7175 9.24222 19.2835 8.77319 19.7528C8.30416 20.222 7.73844 20.5833 7.11551 20.8113C6.49258 21.0393 5.82743 21.1286 5.16645 21.073L5.18534 21.0919C4.39458 21.0176 3.60015 21.1891 2.91043 21.5831C2.2207 21.9772 1.66925 22.5745 1.3313 23.2936C0.993348 24.0127 0.885342 24.8186 1.02202 25.6014C1.15869 26.3842 1.53339 27.1057 2.09501 27.6676C2.65662 28.2295 3.37781 28.6044 4.16021 28.7411C4.94261 28.8779 5.74812 28.7698 6.46688 28.4317C7.18563 28.0936 7.78264 27.5419 8.17648 26.8518C8.57031 26.1617 8.74179 25.3669 8.66753 24.5758L8.68747 24.5947C8.63167 23.9333 8.7208 23.2677 8.94864 22.6444C9.17647 22.0211 9.53753 21.455 10.0066 20.9857C10.4757 20.5164 11.0415 20.1552 11.6645 19.9272C12.2875 19.6993 12.9527 19.6101 13.6137 19.666Z" fill="#1D2130"/>
<path d="M6.58015 17.5586C6.97793 17.1584 7.28247 16.6752 7.47205 16.1435C7.66163 15.6119 7.73156 15.045 7.67686 14.4832L7.6968 14.5021C7.64096 13.8405 7.73013 13.1748 7.95809 12.5513C8.18605 11.9278 8.54729 11.3616 9.0166 10.8923C9.48591 10.423 10.052 10.0618 10.6752 9.83396C11.2985 9.60616 11.964 9.51723 12.6252 9.57338L12.6052 9.55448C13.3957 9.62857 14.1898 9.45691 14.8792 9.06291C15.5686 8.66891 16.1198 8.07175 16.4575 7.35287C16.7953 6.63398 16.9032 5.82836 16.7665 5.04587C16.6299 4.26339 16.2553 3.54212 15.6939 2.98043C15.1325 2.41874 14.4115 2.04398 13.6294 1.90724C12.8473 1.77051 12.0421 1.87846 11.3236 2.21637C10.605 2.55429 10.0082 3.10572 9.61437 3.79546C9.22057 4.48521 9.049 5.2797 9.12305 6.07058L9.10416 6.05168C9.15996 6.71302 9.07083 7.37858 8.84299 8.00191C8.61516 8.62523 8.2541 9.1913 7.78503 9.6606C7.31596 10.1299 6.75017 10.4911 6.12715 10.7191C5.50413 10.947 4.8389 11.0362 4.17789 10.9804L4.19677 10.9993C3.55089 10.9413 2.90084 11.0474 2.30685 11.3077C1.71286 11.5681 1.19416 11.9742 0.79881 12.4884C0.403458 13.0027 0.144249 13.6085 0.0452039 14.2497C-0.0538415 14.8909 0.0104804 15.5467 0.23221 16.1564C0.453939 16.7661 0.825902 17.3099 1.31363 17.7375C1.80136 18.1651 2.38907 18.4625 3.0223 18.6024C3.65553 18.7422 4.3138 18.7199 4.9361 18.5374C5.55841 18.355 6.12461 18.0183 6.58225 17.5586H6.58015Z" fill="#1D2130"/>
<path d="M39.09 7.0859H42.2069V22.2616H39.09V7.0859Z" fill="#1D2130"/>
<path d="M43.9722 17.0651C43.9678 15.9745 44.2871 14.9072 44.8895 13.9983C45.4919 13.0894 46.3504 12.3798 47.3562 11.9594C48.362 11.5391 49.4699 11.4268 50.5395 11.6369C51.6092 11.847 52.5924 12.37 53.3647 13.1396C54.1371 13.9092 54.6637 14.8908 54.878 15.9601C55.0923 17.0294 54.9845 18.1383 54.5684 19.1463C54.1522 20.1543 53.4465 21.016 52.5404 21.6224C51.6344 22.2287 50.5689 22.5524 49.4788 22.5524C48.7553 22.5607 48.0373 22.4245 47.3669 22.152C46.6965 21.8794 46.0872 21.4759 45.5745 20.965C45.0618 20.4541 44.656 19.8461 44.3809 19.1764C44.1058 18.5068 43.9668 17.7891 43.9722 17.0651ZM51.8685 17.0651C51.8555 16.595 51.7043 16.1392 51.4338 15.7546C51.1632 15.3701 50.7854 15.0738 50.3475 14.9029C49.9096 14.732 49.4311 14.694 48.9718 14.7938C48.5124 14.8935 48.0927 15.1264 47.7649 15.4635C47.4372 15.8006 47.2161 16.2269 47.1292 16.6891C47.0423 17.1512 47.0935 17.6288 47.2764 18.062C47.4593 18.4952 47.7657 18.8648 48.1575 19.1247C48.5492 19.3846 49.0088 19.5232 49.4788 19.5232C49.8007 19.5318 50.1209 19.4735 50.4192 19.3522C50.7175 19.2308 50.9874 19.0489 51.2119 18.8179C51.4365 18.587 51.6107 18.312 51.7237 18.0103C51.8367 17.7087 51.886 17.3868 51.8685 17.0651Z" fill="#1D2130"/>
<path d="M67.4082 11.8676V21.7376C67.4082 25.2299 64.6858 26.7062 61.9225 26.7062C60.9496 26.7791 59.9754 26.5825 59.1068 26.1379C58.2382 25.6934 57.5087 25.0182 56.9983 24.1862L59.6577 22.648C59.8722 23.0816 60.214 23.4394 60.6373 23.6734C61.0606 23.9074 61.5453 24.0065 62.0264 23.9573C62.3339 24 62.647 23.9729 62.9427 23.8781C63.2383 23.7832 63.5088 23.6232 63.7342 23.4096C63.9596 23.1961 64.1342 22.9346 64.2449 22.6444C64.3557 22.3543 64.3998 22.0429 64.3741 21.7334V20.7832C64.0091 21.23 63.5445 21.585 63.0176 21.8197C62.4907 22.0543 61.9161 22.1622 61.34 22.1345C59.9692 22.0913 58.669 21.516 57.7146 20.5306C56.7602 19.5451 56.2265 18.2268 56.2265 16.8546C56.2265 15.4824 56.7602 14.1641 57.7146 13.1786C58.669 12.1932 59.9692 11.6179 61.34 11.5747C61.9161 11.547 62.4907 11.6549 63.0176 11.8895C63.5445 12.1242 64.0091 12.4792 64.3741 12.926V11.8655L67.4082 11.8676ZM64.3752 16.8562C64.3961 16.3536 64.2662 15.8562 64.0023 15.4281C63.7383 15 63.3523 14.6607 62.894 14.454C62.4357 14.2472 61.926 14.1823 61.4306 14.2678C60.9351 14.3533 60.4766 14.5852 60.1139 14.9336C59.7513 15.282 59.5012 15.731 59.3958 16.2228C59.2904 16.7147 59.3345 17.2268 59.5225 17.6934C59.7105 18.1599 60.0337 18.5595 60.4506 18.8407C60.8674 19.1218 61.3589 19.2718 61.8616 19.2712C62.1891 19.294 62.5178 19.248 62.8264 19.1361C63.1351 19.0242 63.4169 18.8488 63.6536 18.6213C63.8904 18.3938 64.077 18.1192 64.2012 17.8152C64.3255 17.5112 64.3847 17.1845 64.3752 16.8562Z" fill="#1D2130"/>
<path d="M69.1734 17.0651C69.169 15.9745 69.4882 14.9072 70.0907 13.9983C70.6931 13.0894 71.5516 12.3798 72.5574 11.9594C73.5632 11.5391 74.6711 11.4268 75.7407 11.6369C76.8103 11.847 77.7936 12.37 78.5659 13.1396C79.3382 13.9092 79.8649 14.8908 80.0792 15.9601C80.2934 17.0294 80.1857 18.1383 79.7695 19.1463C79.3534 20.1543 78.6476 21.016 77.7416 21.6224C76.8356 22.2287 75.77 22.5524 74.68 22.5524C73.9564 22.5607 73.2385 22.4245 72.5681 22.152C71.8977 21.8794 71.2884 21.4759 70.7757 20.965C70.263 20.4541 69.8572 19.8461 69.5821 19.1764C69.307 18.5068 69.168 17.7891 69.1734 17.0651ZM77.0697 17.0651C77.0567 16.595 76.9055 16.1392 76.6349 15.7546C76.3644 15.3701 75.9866 15.0738 75.5487 14.9029C75.1108 14.732 74.6323 14.694 74.1729 14.7938C73.7136 14.8935 73.2938 15.1264 72.9661 15.4635C72.6384 15.8006 72.4172 16.2269 72.3303 16.6891C72.2435 17.1512 72.2946 17.6288 72.4775 18.062C72.6604 18.4952 72.9669 18.8648 73.3586 19.1247C73.7504 19.3846 74.21 19.5232 74.68 19.5232C75.0019 19.5318 75.3221 19.4735 75.6204 19.3522C75.9187 19.2308 76.1886 19.0489 76.4131 18.8179C76.6376 18.587 76.8119 18.312 76.9249 18.0103C77.0379 17.7087 77.0872 17.3868 77.0697 17.0651Z" fill="#1D2130"/>
<path d="M81.6402 9.08196C81.6402 8.71189 81.7499 8.35013 81.9554 8.04243C82.1609 7.73473 82.4529 7.4949 82.7947 7.35328C83.1364 7.21166 83.5124 7.17461 83.8752 7.24681C84.238 7.319 84.5712 7.49721 84.8328 7.75889C85.0943 8.02057 85.2724 8.35396 85.3446 8.71692C85.4167 9.07988 85.3797 9.4561 85.2382 9.79799C85.0966 10.1399 84.8569 10.4321 84.5494 10.6377C84.2418 10.8433 83.8802 10.9531 83.5103 10.9531C83.0159 10.9481 82.543 10.7494 82.1934 10.3996C81.8437 10.0497 81.6451 9.57668 81.6402 9.08196ZM81.955 11.8676H85.073V22.2626H81.9508L81.955 11.8676Z" fill="#1D2130"/>
<path d="M98.5317 17.0651C98.5677 17.7521 98.4676 18.4394 98.2372 19.0876C98.0068 19.7358 97.6506 20.332 97.1891 20.8419C96.7275 21.3519 96.1698 21.7655 95.548 22.0591C94.9261 22.3526 94.2524 22.5203 93.5655 22.5524C92.9879 22.5839 92.4105 22.4865 91.8752 22.2671C91.3399 22.0477 90.8601 21.7119 90.4706 21.284V26.4195H87.3536V11.8676H90.4706V12.8441C90.8603 12.4165 91.3401 12.081 91.8754 11.8618C92.4107 11.6426 92.988 11.5452 93.5655 11.5767C94.2525 11.6087 94.9264 11.7763 95.5484 12.0699C96.1704 12.3635 96.7282 12.7772 97.1898 13.2873C97.6513 13.7974 98.0075 14.3938 98.2378 15.0421C98.4681 15.6905 98.568 16.378 98.5317 17.0651ZM95.4147 17.0651C95.4025 16.5786 95.2472 16.1065 94.9682 15.7079C94.6891 15.3093 94.2988 15.0019 93.846 14.8241C93.3932 14.6464 92.898 14.6062 92.4225 14.7087C91.947 14.8111 91.5122 15.0515 91.1727 15.3999C90.8331 15.7484 90.6037 16.1892 90.5134 16.6674C90.423 17.1456 90.4756 17.6398 90.6646 18.0882C90.8536 18.5366 91.1705 18.9193 91.5758 19.1884C91.9811 19.4574 92.4568 19.6009 92.9432 19.6008C93.2771 19.6157 93.6104 19.5598 93.9212 19.4368C94.232 19.3137 94.5133 19.1264 94.7467 18.8869C94.9801 18.6475 95.1602 18.3614 95.2753 18.0474C95.3905 17.7335 95.438 17.3987 95.4147 17.0651Z" fill="#1D2130"/>
<path d="M108.15 19.1431C108.15 21.5339 106.073 22.5524 103.829 22.5524C102.923 22.6346 102.012 22.4428 101.216 22.0017C100.42 21.5607 99.7736 20.8908 99.3618 20.0786L102.062 18.5404C102.171 18.9158 102.406 19.2424 102.727 19.4656C103.048 19.6888 103.435 19.7951 103.825 19.7668C104.572 19.7668 104.947 19.5379 104.947 19.1231C104.947 17.9786 99.8351 18.5824 99.8351 14.9861C99.8351 12.7192 101.747 11.5768 103.908 11.5768C104.72 11.5511 105.525 11.7438 106.237 12.135C106.95 12.5261 107.544 13.1014 107.959 13.8007L105.3 15.235C105.183 14.9627 104.989 14.7308 104.742 14.5681C104.494 14.4055 104.204 14.3194 103.908 14.3204C103.368 14.3204 103.035 14.5304 103.035 14.9021C103.039 16.0876 108.15 15.2969 108.15 19.1431Z" fill="#1D2130"/>
<path d="M119.536 11.8676V22.2626H116.419V21.2851C116.059 21.7164 115.603 22.0563 115.087 22.2768C114.57 22.4973 114.009 22.5921 113.449 22.5535C111.35 22.5535 109.566 21.0572 109.566 18.2485V11.8676H112.683V17.7917C112.657 18.0393 112.685 18.2896 112.765 18.5252C112.846 18.7608 112.977 18.976 113.149 19.1559C113.321 19.3357 113.53 19.476 113.761 19.5668C113.993 19.6576 114.242 19.6968 114.49 19.6817C115.633 19.6817 116.422 19.0171 116.422 17.5408V11.8708L119.536 11.8676Z" fill="#1D2130"/>
<path d="M137.409 15.8797V22.2616H134.292V16.1496C134.292 15.1101 133.793 14.4454 132.796 14.4454C131.757 14.4454 131.175 15.1731 131.175 16.3995V22.2616H128.059V16.1496C128.059 15.1101 127.56 14.4454 126.562 14.4454C125.523 14.4454 124.942 15.1731 124.942 16.3995V22.2616H121.825V11.8666H124.942V12.8221C125.265 12.3982 125.689 12.0621 126.176 11.8443C126.662 11.6266 127.195 11.5343 127.726 11.5758C128.26 11.5497 128.791 11.6623 129.268 11.9026C129.744 12.1429 130.151 12.5028 130.448 12.9471C130.793 12.4823 131.251 12.1127 131.777 11.8729C132.304 11.633 132.883 11.5308 133.461 11.5758C135.846 11.5768 137.409 13.281 137.409 15.8797Z" fill="#1D2130"/>
<path d="M140.045 11.8036C141.323 11.8036 142.358 10.7675 142.358 9.4894C142.358 8.2113 141.323 7.1752 140.045 7.1752C138.768 7.1752 137.732 8.2113 137.732 9.4894C137.732 10.7675 138.768 11.8036 140.045 11.8036Z" fill="#1D2130"/>
</g>
<g opacity="0.6">
<path d="M271.648 7.63404H274.814V22.951H271.648V7.63404Z" fill="#1D2130"/>
<path d="M276.586 17.704C276.586 16.602 276.912 15.5248 277.522 14.609C278.132 13.6932 278.999 12.9799 280.013 12.5597C281.027 12.1394 282.143 12.0311 283.218 12.2484C284.293 12.4657 285.28 12.9989 286.054 13.7803C286.827 14.5618 287.352 15.5564 287.562 16.638C287.773 17.7196 287.658 18.8395 287.234 19.8558C286.81 20.8721 286.095 21.739 285.18 22.3466C284.265 22.9543 283.191 23.2753 282.094 23.269C281.367 23.2747 280.645 23.1345 279.972 22.8564C279.299 22.5784 278.689 22.1682 278.176 21.6498C277.663 21.1315 277.258 20.5155 276.985 19.8379C276.712 19.1604 276.577 18.4349 276.586 17.704ZM284.521 17.704C284.508 17.2289 284.357 16.7681 284.085 16.3791C283.813 15.9901 283.433 15.6903 282.993 15.517C282.552 15.3438 282.071 15.305 281.608 15.4053C281.146 15.5056 280.723 15.7406 280.393 16.081C280.063 16.4214 279.84 16.852 279.752 17.319C279.664 17.786 279.716 18.2687 279.899 18.7066C280.083 19.1445 280.391 19.5183 280.785 19.7811C281.18 20.044 281.642 20.1843 282.115 20.1844C282.437 20.1907 282.757 20.1302 283.055 20.0067C283.353 19.8831 283.622 19.6992 283.846 19.4664C284.069 19.2337 284.243 18.957 284.356 18.6537C284.468 18.3505 284.517 18.0272 284.5 17.704H284.521Z" fill="#1D2130"/>
<path d="M300.126 12.457V22.4316C300.126 25.9508 297.383 27.4454 294.608 27.4454C293.629 27.5261 292.647 27.3308 291.773 26.8813C290.899 26.4319 290.167 25.7462 289.659 24.9014L292.329 23.3538C292.545 23.792 292.889 24.1535 293.315 24.3902C293.741 24.6269 294.229 24.7276 294.713 24.6788C295.022 24.717 295.335 24.6862 295.63 24.5887C295.926 24.4911 296.196 24.3292 296.422 24.1145C296.648 23.8998 296.823 23.6376 296.937 23.3467C297.05 23.0557 297.098 22.7433 297.077 22.4316V21.467C296.708 21.9157 296.241 22.2719 295.712 22.5075C295.182 22.743 294.606 22.8513 294.027 22.8238C292.628 22.8238 291.286 22.2654 290.297 21.2715C289.308 20.2775 288.752 18.9295 288.752 17.5238C288.752 16.1182 289.308 14.7701 290.297 13.7762C291.286 12.7822 292.628 12.2238 294.027 12.2238C294.606 12.1964 295.182 12.3047 295.712 12.5402C296.241 12.7757 296.708 13.132 297.077 13.5806V12.5206L300.126 12.457ZM297.077 17.492C297.098 16.9849 296.967 16.483 296.702 16.051C296.437 15.6189 296.049 15.2764 295.589 15.0675C295.128 14.8586 294.616 14.7928 294.118 14.8787C293.62 14.9645 293.159 15.1981 292.795 15.5493C292.43 15.9005 292.178 16.3533 292.071 16.8494C291.965 17.3456 292.008 17.8624 292.197 18.3335C292.385 18.8046 292.709 19.2083 293.127 19.4928C293.546 19.7773 294.039 19.9296 294.544 19.93C294.874 19.9539 295.205 19.908 295.516 19.7954C295.827 19.6827 296.111 19.5058 296.35 19.2761C296.588 19.0463 296.776 18.7688 296.901 18.4615C297.027 18.1542 297.086 17.8239 297.077 17.492Z" fill="#1D2130"/>
<path d="M301.909 17.704C301.909 16.6029 302.234 15.5266 302.843 14.6112C303.453 13.6958 304.318 12.9825 305.331 12.5616C306.344 12.1407 307.458 12.0311 308.533 12.2467C309.608 12.4623 310.595 12.9934 311.369 13.7727C312.143 14.5521 312.67 15.5447 312.883 16.6249C313.095 17.7051 312.984 18.8243 312.563 19.841C312.142 20.8577 311.431 21.7261 310.518 22.3363C309.606 22.9465 308.534 23.2711 307.438 23.269C306.709 23.2761 305.986 23.137 305.311 22.8597C304.637 22.5824 304.024 22.1726 303.509 21.6542C302.994 21.1359 302.587 20.5195 302.313 19.8412C302.038 19.1629 301.901 18.4363 301.909 17.704ZM309.844 17.704C309.831 17.2285 309.679 16.7672 309.407 16.378C309.135 15.9888 308.754 15.689 308.313 15.5161C307.872 15.3432 307.39 15.305 306.927 15.4061C306.464 15.5073 306.042 15.7434 305.712 16.0848C305.382 16.4263 305.16 16.8579 305.074 17.3256C304.987 17.7932 305.04 18.2762 305.225 18.7139C305.411 19.1517 305.72 19.5247 306.116 19.7863C306.511 20.0478 306.975 20.1863 307.448 20.1844C307.771 20.1907 308.09 20.1302 308.388 20.0067C308.686 19.8831 308.955 19.6992 309.179 19.4664C309.403 19.2337 309.576 18.957 309.689 18.6537C309.801 18.3505 309.85 18.0272 309.833 17.704H309.844Z" fill="#1D2130"/>
<path d="M314.433 9.64798C314.433 9.27481 314.543 8.91001 314.75 8.59973C314.956 8.28944 315.25 8.04761 315.593 7.9048C315.936 7.76199 316.314 7.72463 316.678 7.79743C317.042 7.87023 317.377 8.04994 317.639 8.31381C317.902 8.57768 318.081 8.91388 318.153 9.27988C318.226 9.64589 318.189 10.0253 318.047 10.37C317.904 10.7148 317.664 11.0095 317.355 11.2168C317.046 11.4241 316.683 11.5348 316.311 11.5348C315.815 11.5293 315.341 11.3287 314.989 10.9761C314.638 10.6234 314.439 10.1467 314.433 9.64798ZM314.739 12.457H317.905V22.951H314.739V12.457Z" fill="#1D2130"/>
<path d="M331.452 17.7041C331.488 18.402 331.386 19.1 331.151 19.7581C330.917 20.4161 330.556 21.0212 330.088 21.5384C329.62 22.0556 329.055 22.4748 328.426 22.7718C327.796 23.0688 327.114 23.2378 326.419 23.2691C325.83 23.3085 325.239 23.2136 324.691 22.9915C324.143 22.7694 323.652 22.4259 323.254 21.9865V27.1699H320.089V12.4571H323.254V13.4429C323.652 13.0048 324.143 12.6628 324.692 12.4425C325.24 12.2222 325.83 12.1294 326.419 12.1709C327.112 12.2022 327.791 12.3701 328.418 12.6651C329.046 12.9602 329.609 13.3765 330.077 13.8903C330.544 14.4041 330.906 15.0053 331.142 15.6597C331.378 16.3141 331.483 17.0087 331.452 17.7041ZM328.287 17.7041C328.274 17.2117 328.118 16.7341 327.836 16.3309C327.555 15.9278 327.161 15.6171 326.704 15.4378C326.248 15.2585 325.749 15.2185 325.27 15.323C324.79 15.4274 324.353 15.6716 324.011 16.0249C323.67 16.3782 323.44 16.8249 323.35 17.3091C323.26 17.7932 323.314 18.2932 323.506 18.7464C323.698 19.1997 324.019 19.5859 324.428 19.8568C324.837 20.1277 325.317 20.2712 325.807 20.2693C326.143 20.2836 326.478 20.2264 326.79 20.1016C327.103 19.9767 327.385 19.7869 327.619 19.5447C327.853 19.3025 328.034 19.0133 328.149 18.6961C328.264 18.3789 328.311 18.0408 328.287 17.7041Z" fill="#1D2130"/>
<path d="M341.085 19.8028C341.085 22.2196 338.975 23.2478 336.738 23.2478C335.826 23.3303 334.91 23.136 334.109 22.6901C333.308 22.2441 332.658 21.567 332.244 20.7462L334.966 19.1986C335.074 19.5768 335.307 19.9064 335.628 20.1322C335.949 20.3579 336.337 20.4662 336.728 20.4388C337.477 20.4388 337.857 20.2056 337.857 19.7816C337.857 18.6262 332.718 19.241 332.718 15.6052C332.718 13.3156 334.639 12.1708 336.812 12.1708C337.638 12.1336 338.459 12.322 339.187 12.7158C339.916 13.1095 340.524 13.6941 340.948 14.4074L338.226 15.849C338.106 15.5755 337.909 15.3429 337.66 15.1793C337.411 15.0156 337.12 14.9279 336.823 14.9268C336.274 14.9268 335.947 15.1388 335.947 15.5098C335.947 16.7182 341.085 15.9232 341.085 19.8028Z" fill="#1D2130"/>
<path d="M352.554 12.4571V22.9511H349.389V21.9653C349.03 22.4016 348.573 22.747 348.056 22.9734C347.539 23.1999 346.977 23.3012 346.414 23.2691C344.303 23.2691 342.499 21.7533 342.499 18.9231V12.4571H345.665V18.4461C345.64 18.6965 345.669 18.9493 345.751 19.1871C345.833 19.4249 345.965 19.642 346.139 19.8234C346.312 20.0048 346.523 20.1462 346.756 20.2379C346.99 20.3295 347.24 20.3691 347.49 20.3541C348.629 20.3541 349.431 19.6757 349.431 18.2341V12.4571H352.554Z" fill="#1D2130"/>
<path d="M370.491 16.5062V22.951H367.326V16.7818C367.326 15.7218 366.83 15.0646 365.828 15.0646C364.825 15.0646 364.192 15.796 364.192 17.0362V22.951H361.027V16.7818C361.027 15.7218 360.531 15.0646 359.529 15.0646C358.526 15.0646 357.893 15.796 357.893 17.0362V22.951H354.728V12.457H357.893V13.4216C358.221 12.9954 358.649 12.658 359.139 12.4396C359.629 12.2212 360.166 12.1288 360.7 12.1708C361.235 12.1428 361.769 12.255 362.248 12.4966C362.727 12.7382 363.135 13.1008 363.433 13.5488C363.78 13.0808 364.241 12.7089 364.77 12.4679C365.3 12.2269 365.881 12.1247 366.461 12.1708C368.93 12.1708 370.491 13.888 370.491 16.5062Z" fill="#1D2130"/>
<path d="M252.794 4.87805V0.373047H238.655V31.325H252.794V26.82C249.897 26.82 247.12 25.6642 245.072 23.6067C243.024 21.5492 241.873 18.7587 241.873 15.849C241.873 12.9394 243.024 10.1488 245.072 8.09138C247.12 6.03392 249.897 4.87805 252.794 4.87805Z" fill="#1D2130"/>
<path d="M252.794 4.87805V26.82C255.69 26.82 258.467 25.6642 260.515 23.6067C262.563 21.5493 263.714 18.7587 263.714 15.849C263.714 12.9394 262.563 10.1488 260.515 8.09138C258.467 6.03392 255.69 4.87805 252.794 4.87805Z" fill="#1D2130"/>
<path d="M373.15 12.3934C374.432 12.3934 375.472 11.3493 375.472 10.0614C375.472 8.77349 374.432 7.72942 373.15 7.72942C371.868 7.72942 370.829 8.77349 370.829 10.0614C370.829 11.3493 371.868 12.3934 373.15 12.3934Z" fill="#1D2130"/>
</g>
<g opacity="0.6">
<path d="M508.063 9.63451H511.229V22.371H508.063V9.63451ZM512.484 17.562C512.484 14.412 514.426 12.5325 517.422 12.5325C520.419 12.5325 522.36 14.412 522.36 17.562C522.36 20.712 520.461 22.602 517.422 22.602C514.383 22.602 512.484 20.7645 512.484 17.562ZM519.184 17.562C519.184 15.8295 518.498 14.811 517.422 14.811C516.346 14.811 515.671 15.861 515.671 17.562C515.671 19.263 516.335 20.292 517.422 20.292C518.509 20.292 519.184 19.326 519.184 17.5725V17.562ZM523.552 22.9905H526.591C526.736 23.3102 526.98 23.5749 527.288 23.7452C527.596 23.9155 527.951 23.9822 528.3 23.9355C529.503 23.9355 530.136 23.2845 530.136 22.3395V20.5755H530.073C529.821 21.1161 529.412 21.5692 528.898 21.8761C528.385 22.1831 527.791 22.3298 527.193 22.2975C524.882 22.2975 523.352 20.544 523.352 17.5305C523.352 14.517 524.808 12.6165 527.235 12.6165C527.852 12.5924 528.461 12.7566 528.981 13.0868C529.502 13.4171 529.909 13.8978 530.147 14.4645V12.711H533.312V22.266C533.312 24.5655 531.276 25.9935 528.269 25.9935C525.473 25.9935 523.732 24.744 523.552 23.001V22.9905ZM530.147 17.5515C530.147 16.0185 529.44 15.0525 528.321 15.0525C527.203 15.0525 526.517 16.008 526.517 17.5515C526.517 19.095 527.193 19.9665 528.321 19.9665C529.45 19.9665 530.147 19.116 530.147 17.562V17.5515ZM534.504 17.5515C534.504 14.4015 536.446 12.522 539.442 12.522C542.439 12.522 544.391 14.4015 544.391 17.5515C544.391 20.7015 542.492 22.5915 539.442 22.5915C536.393 22.5915 534.504 20.7645 534.504 17.562V17.5515ZM541.204 17.5515C541.204 15.819 540.519 14.8005 539.442 14.8005C538.366 14.8005 537.744 15.861 537.744 17.5725C537.744 19.284 538.408 20.3025 539.485 20.3025C540.561 20.3025 541.204 19.326 541.204 17.5725V17.5515ZM545.594 10.422C545.585 10.104 545.672 9.79064 545.843 9.52175C546.014 9.25285 546.261 9.04049 546.553 8.91159C546.846 8.78269 547.17 8.74306 547.485 8.79772C547.8 8.85237 548.091 8.99886 548.322 9.2186C548.554 9.43834 548.714 9.72145 548.783 10.032C548.853 10.3426 548.828 10.6667 548.712 10.9631C548.596 11.2596 548.394 11.5151 548.132 11.6973C547.87 11.8795 547.559 11.9802 547.24 11.9865C547.028 12.001 546.815 11.9717 546.615 11.9005C546.415 11.8293 546.232 11.7178 546.078 11.5728C545.923 11.4279 545.8 11.2527 545.717 11.0582C545.634 10.8638 545.592 10.6544 545.594 10.443V10.422ZM545.594 12.732H548.759V22.371H545.594V12.732ZM560.249 17.5515C560.249 20.7015 558.846 22.497 556.44 22.497C555.823 22.5364 555.209 22.3863 554.681 22.0671C554.153 21.7479 553.735 21.2748 553.486 20.712H553.423V25.458H550.257V12.711H553.423V14.433H553.486C553.724 13.8609 554.133 13.3755 554.658 13.043C555.183 12.7105 555.798 12.5469 556.419 12.5745C558.846 12.6165 560.291 14.4225 560.291 17.5725L560.249 17.5515ZM557.084 17.5515C557.084 16.0185 556.377 15.042 555.269 15.042C554.161 15.042 553.454 16.029 553.444 17.5515C553.433 19.074 554.161 20.0505 555.269 20.0505C556.377 20.0505 557.084 19.095 557.084 17.5725V17.5515ZM565.683 12.5115C568.31 12.5115 569.904 13.7505 569.977 15.735H567.097C567.097 15.0525 566.527 14.622 565.651 14.622C564.776 14.622 564.385 14.958 564.385 15.4515C564.385 15.945 564.733 16.1025 565.44 16.2495L567.466 16.659C569.397 17.0685 570.22 17.8455 570.22 19.305C570.22 21.3 568.395 22.581 565.704 22.581C563.014 22.581 561.252 21.3 561.114 19.3365H564.164C564.259 20.0505 564.828 20.4705 565.757 20.4705C566.685 20.4705 567.107 20.166 567.107 19.662C567.107 19.158 566.812 19.053 566.052 18.8955L564.227 18.507C562.338 18.1185 561.347 17.121 561.347 15.651C561.368 13.761 563.066 12.5325 565.683 12.5325V12.5115ZM580.782 22.35H577.732V20.5545H577.669C577.502 21.1573 577.132 21.685 576.621 22.0498C576.111 22.4146 575.49 22.5946 574.863 22.56C574.382 22.5872 573.9 22.5114 573.452 22.3376C573.003 22.1639 572.596 21.8963 572.26 21.5529C571.924 21.2094 571.666 20.7983 571.503 20.3471C571.341 19.8959 571.277 19.4152 571.317 18.9375V12.711H574.483V18.213C574.483 19.3575 575.074 19.9665 576.055 19.9665C576.285 19.967 576.512 19.9185 576.722 19.8243C576.932 19.7301 577.119 19.5924 577.271 19.4204C577.423 19.2483 577.536 19.046 577.603 18.8269C577.67 18.6078 577.689 18.377 577.659 18.15V12.711H580.824L580.782 22.35ZM582.312 12.711H585.371V14.5695H585.435C585.603 13.9747 585.964 13.452 586.463 13.0834C586.961 12.7148 587.568 12.5211 588.189 12.5325C588.82 12.4822 589.448 12.6703 589.946 13.0594C590.445 13.4485 590.778 14.0101 590.879 14.6325H590.942C591.134 14.0035 591.53 13.4557 592.069 13.0755C592.608 12.6953 593.258 12.5043 593.918 12.5325C594.348 12.5181 594.777 12.594 595.176 12.7553C595.575 12.9165 595.936 13.1595 596.234 13.4685C596.533 13.7775 596.763 14.1455 596.909 14.5486C597.055 14.9518 597.115 15.381 597.083 15.8085V22.371H593.918V16.6485C593.918 15.5985 593.443 15.1155 592.557 15.1155C592.359 15.1138 592.163 15.1544 591.983 15.2344C591.802 15.3144 591.641 15.432 591.51 15.5793C591.379 15.7266 591.281 15.9001 591.224 16.0882C591.166 16.2762 591.149 16.4745 591.175 16.6695V22.371H588.168V16.6065C588.168 15.6405 587.693 15.1155 586.828 15.1155C586.628 15.1156 586.43 15.1578 586.248 15.2394C586.066 15.3211 585.903 15.4402 585.77 15.5891C585.637 15.7379 585.538 15.913 585.478 16.1029C585.419 16.2927 585.4 16.493 585.424 16.6905V22.371H582.259L582.312 12.711Z" fill="#1D2130"/>
<path d="M499.211 10.2121C498.674 8.99024 497.963 7.8516 497.101 6.83107C495.826 5.27742 494.234 4.01013 492.431 3.1126C490.629 2.21508 488.655 1.70766 486.641 1.62376C484.627 1.53986 482.618 1.88136 480.746 2.62581C478.875 3.37025 477.182 4.50075 475.781 5.9429C474.38 7.38505 473.302 9.10615 472.617 10.9929C471.932 12.8797 471.657 14.8894 471.809 16.8897C471.961 18.89 472.537 20.8355 473.499 22.5983C474.462 24.3611 475.788 25.9011 477.391 27.1171C478.42 27.9129 479.557 28.5598 480.768 29.0386C482.465 29.7309 484.282 30.0876 486.117 30.0886C489.904 30.0802 493.534 28.5779 496.21 25.9109C498.886 23.244 500.39 19.6299 500.393 15.8611C500.395 13.917 499.993 11.9935 499.211 10.2121ZM486.106 4.51056C487.754 4.51039 489.382 4.86876 490.876 5.56056C490.511 5.71719 490.128 5.82659 489.736 5.88607C488.445 6.07201 487.249 6.6684 486.327 7.58619C485.405 8.50399 484.806 9.69399 484.619 10.9786C484.537 11.699 484.207 12.3692 483.687 12.8761C483.166 13.383 482.485 13.6956 481.759 13.7611C480.468 13.947 479.273 14.5434 478.35 15.4612C477.428 16.379 476.829 17.569 476.642 18.8536C476.579 19.5386 476.285 20.1823 475.808 20.6806C474.986 18.9515 474.617 17.0435 474.735 15.1342C474.853 13.2248 475.454 11.3762 476.483 9.7603C477.511 8.1444 478.934 6.81376 480.619 5.89221C482.303 4.97065 484.195 4.48814 486.117 4.48956L486.106 4.51056ZM477.381 23.2111C477.507 23.0956 477.634 22.9906 477.76 22.8646C478.699 21.9589 479.302 20.7634 479.47 19.4731C479.538 18.7478 479.863 18.0703 480.388 17.5621C480.892 17.0393 481.571 16.7182 482.297 16.6591C483.588 16.4731 484.784 15.8767 485.706 14.9589C486.629 14.0411 487.228 12.8511 487.415 11.5666C487.46 10.808 487.788 10.0932 488.333 9.56107C488.85 9.04851 489.535 8.73902 490.264 8.68956C491.449 8.5272 492.555 8.00257 493.429 7.18807C494.423 8.00924 495.266 8.99711 495.919 10.1071C495.879 10.161 495.833 10.2103 495.782 10.2541C495.278 10.7814 494.6 11.1096 493.872 11.1781C492.58 11.3608 491.382 11.9561 490.459 12.8745C489.537 13.7929 488.938 14.9847 488.755 16.2706C488.68 16.9934 488.357 17.6685 487.84 18.1813C487.323 18.6941 486.643 19.0133 485.916 19.0846C484.622 19.2691 483.422 19.8643 482.494 20.7817C481.566 21.6992 480.961 22.8899 480.768 24.1771C480.711 24.6902 480.534 25.183 480.251 25.6156C479.168 24.9759 478.198 24.1636 477.381 23.2111ZM486.106 27.2641C485.036 27.2652 483.97 27.1168 482.941 26.8231C483.293 26.17 483.522 25.4582 483.616 24.7231C483.69 24.0018 484.012 23.328 484.527 22.8154C485.042 22.3028 485.719 21.9827 486.444 21.9091C487.737 21.7252 488.935 21.1297 489.859 20.2118C490.784 19.2938 491.384 18.1027 491.572 16.8166C491.646 16.0953 491.968 15.4215 492.483 14.9089C492.998 14.3963 493.675 14.0762 494.4 14.0026C495.372 13.8766 496.3 13.5162 497.101 12.9526C497.545 14.6304 497.598 16.3873 497.255 18.0885C496.911 19.7897 496.181 21.39 495.119 22.7667C494.058 24.1433 492.694 25.2597 491.131 26.0302C489.569 26.8007 487.85 27.2048 486.106 27.2116V27.2641Z" fill="#1D2130"/>
</g>
<g opacity="0.6">
<path d="M733.09 23.5432C732.465 23.5767 731.848 23.4008 731.337 23.044C731.123 22.8871 730.952 22.6811 730.836 22.4437C730.721 22.2064 730.666 21.9448 730.676 21.6816V12.0408C730.671 11.9999 730.675 11.9585 730.689 11.9196C730.702 11.8807 730.724 11.8454 730.754 11.8163C730.783 11.7872 730.819 11.7652 730.858 11.7518C730.897 11.7384 730.939 11.7341 730.98 11.7392H732.743C732.943 11.7392 733.037 11.8432 733.037 12.0408V20.9328C733.037 21.328 733.216 21.5256 733.583 21.5256C733.739 21.5319 733.894 21.5144 734.045 21.4736C734.255 21.4736 734.37 21.536 734.38 21.7232L734.538 23.0232C734.545 23.0611 734.545 23.1001 734.536 23.1377C734.527 23.1753 734.51 23.2106 734.486 23.2411C734.462 23.2717 734.432 23.2968 734.397 23.3148C734.363 23.3328 734.325 23.3433 734.286 23.3456C733.9 23.472 733.496 23.5386 733.09 23.5432Z" fill="#1D2130"/>
<path d="M743.007 22.4304C742.121 23.1558 741.008 23.5526 739.859 23.5526C738.709 23.5526 737.596 23.1558 736.71 22.4304C735.932 21.6514 735.495 20.5993 735.495 19.5028C735.495 18.4063 735.932 17.3542 736.71 16.5752C737.598 15.8536 738.711 15.4592 739.859 15.4592C741.007 15.4592 742.119 15.8536 743.007 16.5752C743.768 17.3614 744.193 18.4084 744.193 19.4976C744.193 20.5868 743.768 21.6339 743.007 22.42V22.4304ZM738.368 21.0576C738.78 21.4267 739.314 21.6311 739.869 21.6311C740.424 21.6311 740.959 21.4267 741.37 21.0576C741.742 20.6337 741.947 20.0907 741.947 19.5288C741.947 18.9669 741.742 18.424 741.37 18C740.959 17.631 740.424 17.4266 739.869 17.4266C739.314 17.4266 738.78 17.631 738.368 18C737.996 18.424 737.791 18.9669 737.791 19.5288C737.791 20.0907 737.996 20.6337 738.368 21.0576Z" fill="#1D2130"/>
<path d="M753.901 15.7224C754.1 15.7224 754.194 15.8264 754.194 16.024V23.4808C754.213 23.984 754.118 24.4851 753.916 24.9474C753.715 25.4097 753.412 25.8218 753.03 26.1536C752.181 26.8706 751.09 27.2422 749.976 27.1936C748.969 27.2286 747.976 26.9563 747.132 26.4136C746.771 26.1788 746.462 25.873 746.226 25.5151C745.989 25.1573 745.83 24.7551 745.757 24.3336C745.757 24.1256 745.757 24.032 746.04 24.032H747.803C747.878 24.0345 747.951 24.0584 748.012 24.1008C748.073 24.1433 748.121 24.2024 748.15 24.2712C748.264 24.587 748.492 24.85 748.79 25.0096C749.153 25.1952 749.557 25.2881 749.965 25.28C750.211 25.2933 750.458 25.2579 750.691 25.1758C750.923 25.0936 751.137 24.9664 751.319 24.8016C751.485 24.6291 751.615 24.425 751.7 24.2016C751.785 23.9781 751.823 23.74 751.812 23.5016V22.8464C751.181 23.3065 750.413 23.5444 749.629 23.5224C749.081 23.5421 748.534 23.4519 748.022 23.2571C747.51 23.0623 747.043 22.7669 746.649 22.3888C745.892 21.6131 745.469 20.5764 745.469 19.4976C745.469 18.4187 745.892 17.3821 746.649 16.6064C747.045 16.2315 747.513 15.939 748.024 15.7461C748.536 15.5532 749.082 15.4638 749.629 15.4832C750.435 15.4621 751.224 15.7153 751.865 16.2008V16.0344C751.86 15.9945 751.864 15.9541 751.877 15.916C751.89 15.878 751.911 15.8433 751.939 15.8144C751.967 15.7855 752.002 15.7632 752.04 15.7491C752.077 15.735 752.118 15.7294 752.158 15.7328L753.901 15.7224ZM749.829 21.6712C750.099 21.6795 750.368 21.6288 750.616 21.5228C750.865 21.4167 751.087 21.2579 751.266 21.0576C751.615 20.611 751.805 20.0623 751.805 19.4976C751.805 18.9328 751.615 18.3841 751.266 17.9376C751.087 17.7399 750.867 17.5835 750.62 17.4793C750.374 17.3751 750.107 17.3256 749.839 17.3344C749.566 17.3258 749.294 17.3763 749.042 17.4822C748.79 17.5882 748.564 17.7471 748.38 17.948C747.994 18.3751 747.791 18.9347 747.814 19.508C747.795 20.0756 747.993 20.6293 748.37 21.0576C748.554 21.2579 748.78 21.4164 749.032 21.5223C749.283 21.6282 749.555 21.679 749.829 21.6712Z" fill="#1D2130"/>
<path d="M763.251 22.4304C762.364 23.152 761.251 23.5464 760.103 23.5464C758.955 23.5464 757.842 23.152 756.955 22.4304C756.193 21.6425 755.768 20.5937 755.768 19.5028C755.768 18.4118 756.193 17.3631 756.955 16.5752C757.843 15.8554 758.955 15.4622 760.103 15.4622C761.251 15.4622 762.363 15.8554 763.251 16.5752C764.012 17.3613 764.437 18.4084 764.437 19.4976C764.437 20.5867 764.012 21.6338 763.251 22.42V22.4304ZM758.602 21.0576C758.803 21.2472 759.041 21.3955 759.3 21.4936C759.559 21.5918 759.836 21.638 760.113 21.6296C760.389 21.6366 760.664 21.5898 760.921 21.4916C761.179 21.3935 761.414 21.246 761.614 21.0576C761.98 20.6308 762.181 20.0889 762.181 19.5288C762.181 18.9686 761.98 18.4268 761.614 18C761.414 17.8116 761.179 17.6641 760.921 17.5659C760.664 17.4678 760.389 17.4209 760.113 17.428C759.836 17.4195 759.559 17.4657 759.3 17.5639C759.041 17.6621 758.803 17.8103 758.602 18C758.236 18.4268 758.035 18.9686 758.035 19.5288C758.035 20.0889 758.236 20.6308 758.602 21.0576Z" fill="#1D2130"/>
<path d="M768.226 13.9544C767.948 14.195 767.592 14.3277 767.224 14.3277C766.855 14.3277 766.499 14.195 766.221 13.9544C766.096 13.8368 765.995 13.6949 765.927 13.5375C765.858 13.3802 765.823 13.2106 765.823 13.0392C765.823 12.8678 765.858 12.6982 765.927 12.5409C765.995 12.3835 766.096 12.2416 766.221 12.124C766.502 11.8894 766.857 11.7607 767.224 11.7607C767.591 11.7607 767.946 11.8894 768.226 12.124C768.352 12.2416 768.452 12.3835 768.52 12.5409C768.589 12.6982 768.624 12.8678 768.624 13.0392C768.624 13.2106 768.589 13.3802 768.52 13.5375C768.452 13.6949 768.352 13.8368 768.226 13.9544ZM768.446 23.5432C767.822 23.5735 767.206 23.3979 766.694 23.044C766.483 22.8848 766.315 22.6781 766.201 22.4411C766.088 22.2041 766.034 21.9437 766.043 21.6816V16.024C766.038 15.9832 766.042 15.9418 766.056 15.9029C766.069 15.864 766.091 15.8286 766.121 15.7995C766.15 15.7705 766.186 15.7484 766.225 15.735C766.264 15.7217 766.306 15.7173 766.347 15.7224H768.11C768.31 15.7224 768.404 15.8264 768.404 16.024V20.9328C768.404 21.328 768.583 21.5256 768.94 21.5256C769.099 21.5313 769.258 21.5138 769.412 21.4736C769.622 21.4736 769.737 21.536 769.748 21.7232L769.905 23.0232C769.913 23.0611 769.912 23.1002 769.903 23.1378C769.894 23.1754 769.877 23.2106 769.853 23.2412C769.829 23.2717 769.799 23.2969 769.765 23.3149C769.73 23.3329 769.692 23.3434 769.653 23.3456C769.264 23.4727 768.856 23.5394 768.446 23.5432Z" fill="#1D2130"/>
<path d="M776.391 15.4728C776.942 15.4513 777.491 15.5396 778.007 15.7325C778.522 15.9255 778.993 16.2191 779.392 16.596C780.134 17.3853 780.547 18.424 780.547 19.5028C780.547 20.5816 780.134 21.6203 779.392 22.4096C778.995 22.7899 778.525 23.0864 778.009 23.2812C777.493 23.4761 776.943 23.5652 776.391 23.5432C775.605 23.5605 774.835 23.3232 774.197 22.8672V26.6216C774.197 26.8192 774.093 26.9128 773.893 26.9128H772.13C772.09 26.9203 772.048 26.9179 772.009 26.9059C771.97 26.8939 771.935 26.8726 771.906 26.844C771.877 26.8153 771.855 26.78 771.843 26.7413C771.831 26.7026 771.829 26.6615 771.836 26.6216V18.0936C771.849 18.0102 771.841 17.9251 771.814 17.8451C771.788 17.765 771.742 17.6923 771.682 17.6327C771.622 17.5731 771.549 17.5282 771.468 17.5017C771.387 17.4752 771.301 17.4678 771.217 17.48H770.871C770.64 17.48 770.524 17.3968 770.524 17.2304V16.0032C770.519 15.9273 770.54 15.8518 770.584 15.7893C770.628 15.7269 770.692 15.6812 770.766 15.66C771.129 15.5293 771.513 15.4658 771.899 15.4728C772.284 15.439 772.671 15.52 773.009 15.7053C773.348 15.8905 773.623 16.1717 773.799 16.5128C774.137 16.174 774.541 15.907 774.987 15.7281C775.432 15.5493 775.91 15.4624 776.391 15.4728ZM774.754 21.0576C774.941 21.2514 775.166 21.4056 775.415 21.511C775.663 21.6164 775.931 21.6707 776.202 21.6707C776.473 21.6707 776.741 21.6164 776.989 21.511C777.238 21.4056 777.463 21.2514 777.65 21.0576C778.044 20.622 778.252 20.0511 778.227 19.4664C778.255 18.8813 778.047 18.3091 777.65 17.8752C777.463 17.6814 777.238 17.5272 776.989 17.4218C776.741 17.3165 776.473 17.2621 776.202 17.2621C775.931 17.2621 775.663 17.3165 775.415 17.4218C775.166 17.5272 774.941 17.6814 774.754 17.8752C774.372 18.3168 774.173 18.8854 774.197 19.4664C774.176 20.047 774.375 20.6145 774.754 21.0576Z" fill="#1D2130"/>
<path d="M785.5 23.5431C784.558 23.5815 783.624 23.3582 782.803 22.8983C782.474 22.7018 782.193 22.4342 781.982 22.1155C781.772 21.7969 781.636 21.4353 781.586 21.0575C781.586 20.8495 781.659 20.7456 781.89 20.7456H783.433C783.506 20.7484 783.577 20.7712 783.638 20.8116C783.7 20.852 783.748 20.9083 783.779 20.9743C783.999 21.5359 784.577 21.8167 785.5 21.8167C785.822 21.8313 786.143 21.767 786.434 21.6295C786.535 21.5846 786.621 21.5134 786.684 21.4237C786.747 21.3339 786.784 21.229 786.791 21.12C786.791 20.8496 786.623 20.6623 786.287 20.5375C785.889 20.4062 785.477 20.319 785.059 20.2775C784.565 20.222 784.074 20.1352 783.59 20.0175C783.12 19.912 782.692 19.6694 782.362 19.3208C782.168 19.0838 782.025 18.8098 781.942 18.5158C781.859 18.2217 781.838 17.9139 781.881 17.6116C781.923 17.3092 782.028 17.0186 782.188 16.758C782.349 16.4974 782.562 16.2723 782.814 16.0968C783.57 15.6192 784.458 15.3866 785.353 15.4312C786.221 15.4021 787.079 15.6147 787.83 16.0448C788.133 16.2147 788.394 16.4495 788.593 16.7319C788.793 17.0144 788.927 17.3375 788.984 17.6776C788.984 17.8856 788.89 17.9895 788.701 17.9895H787.148C787.082 17.9934 787.017 17.9776 786.961 17.9442C786.905 17.9108 786.86 17.8613 786.833 17.8024C786.729 17.556 786.534 17.3587 786.287 17.2512C786.009 17.1069 785.699 17.0354 785.385 17.0432C785.077 17.0266 784.77 17.0874 784.493 17.22C784.395 17.2573 784.311 17.3229 784.251 17.4081C784.191 17.4934 784.158 17.5945 784.157 17.6984C784.164 17.8406 784.216 17.9769 784.307 18.0874C784.397 18.1978 784.521 18.2765 784.661 18.312C785.064 18.4625 785.483 18.5671 785.909 18.624C786.4 18.688 786.887 18.7782 787.368 18.8943C787.839 18.9998 788.266 19.2425 788.596 19.5912C788.773 19.7832 788.909 20.008 788.997 20.2525C789.085 20.4971 789.124 20.7566 789.11 21.0159C789.119 21.3755 789.034 21.7312 788.863 22.0483C788.692 22.3655 788.441 22.6333 788.134 22.8256C787.35 23.3244 786.431 23.5747 785.5 23.5431Z" fill="#1D2130"/>
<path d="M800.203 23.0232C800.209 23.0601 800.208 23.0978 800.199 23.1341C800.19 23.1705 800.174 23.2046 800.151 23.2347C800.129 23.2647 800.1 23.29 800.068 23.309C800.035 23.3281 799.999 23.3405 799.962 23.3456C799.579 23.4695 799.179 23.5361 798.776 23.5432C798.377 23.5841 797.974 23.5223 797.607 23.3638C797.239 23.2053 796.919 22.9554 796.677 22.6384C795.936 23.27 794.977 23.594 794.001 23.5432C793.548 23.5639 793.095 23.4904 792.672 23.3274C792.249 23.1644 791.865 22.9155 791.545 22.5968C791.227 22.2628 790.981 21.8686 790.82 21.438C790.66 21.0073 790.589 20.5489 790.611 20.0904V16.024C790.611 15.8264 790.706 15.7224 790.905 15.7224H792.668C792.868 15.7224 792.962 15.8264 792.962 16.024V19.7784C792.943 20.2461 793.104 20.7035 793.413 21.0576C793.568 21.2197 793.755 21.3473 793.963 21.4316C794.171 21.5159 794.395 21.555 794.62 21.5464C794.85 21.5563 795.08 21.521 795.296 21.4425C795.512 21.3639 795.711 21.2437 795.88 21.0888C796.039 20.9254 796.164 20.7313 796.245 20.5185C796.326 20.3056 796.363 20.0785 796.352 19.8512V16.024C796.352 15.8264 796.446 15.7224 796.646 15.7224H798.43C798.629 15.7224 798.724 15.8264 798.724 16.024V20.9224C798.724 21.328 798.902 21.5256 799.248 21.5256C799.411 21.5318 799.574 21.5143 799.731 21.4736C799.771 21.4625 799.812 21.4606 799.853 21.4678C799.894 21.475 799.932 21.4912 799.965 21.5152C799.999 21.5393 800.026 21.5704 800.045 21.6064C800.065 21.6425 800.076 21.6824 800.077 21.7232L800.203 23.0232Z" fill="#1D2130"/>
<path d="M816.879 23.0232C816.889 23.0604 816.89 23.0993 816.882 23.1369C816.874 23.1745 816.859 23.21 816.835 23.2409C816.812 23.2717 816.783 23.2971 816.749 23.3152C816.714 23.3333 816.677 23.3437 816.638 23.3456C816.248 23.4713 815.841 23.5379 815.431 23.5432C814.807 23.5751 814.19 23.3994 813.679 23.044C813.457 22.8918 813.277 22.6878 813.155 22.4501C813.032 22.2125 812.97 21.9485 812.975 21.6816V19.2376C812.997 18.7712 812.84 18.314 812.535 17.9584C812.387 17.7959 812.206 17.6677 812.002 17.5832C811.799 17.4987 811.579 17.4599 811.359 17.4696C811.161 17.4622 810.963 17.4995 810.781 17.5788C810.6 17.658 810.438 17.7772 810.31 17.9272C810.033 18.2757 809.891 18.7112 809.911 19.1544V22.992C809.911 23.1896 809.816 23.2936 809.617 23.2936H807.843C807.802 23.2987 807.76 23.2943 807.721 23.281C807.682 23.2676 807.646 23.2455 807.617 23.2165C807.588 23.1874 807.565 23.152 807.552 23.1131C807.538 23.0743 807.534 23.0328 807.539 22.992V19.2376C807.562 18.7763 807.417 18.3223 807.13 17.9584C807.002 17.8055 806.841 17.6825 806.66 17.598C806.479 17.5135 806.281 17.4697 806.08 17.4696C805.866 17.461 805.653 17.4974 805.454 17.5762C805.255 17.6551 805.075 17.7747 804.926 17.9272C804.626 18.2646 804.471 18.7053 804.496 19.1544V22.992C804.501 23.0328 804.496 23.0743 804.483 23.1131C804.469 23.152 804.447 23.1874 804.418 23.2165C804.388 23.2455 804.353 23.2676 804.314 23.281C804.274 23.2943 804.232 23.2987 804.191 23.2936H802.481C802.281 23.2936 802.187 23.1896 802.187 22.992V18.0936C802.199 18.0102 802.192 17.9251 802.165 17.845C802.138 17.765 802.093 17.6923 802.033 17.6327C801.973 17.5731 801.899 17.5282 801.818 17.5017C801.738 17.4752 801.652 17.4678 801.568 17.48H801.221C800.99 17.48 800.875 17.3968 800.875 17.2304V16.0032C800.869 15.9273 800.89 15.8518 800.934 15.7893C800.978 15.7269 801.043 15.6812 801.116 15.66C801.479 15.5292 801.864 15.4658 802.25 15.4728C802.62 15.4415 802.993 15.5147 803.323 15.684C803.654 15.8533 803.929 16.1118 804.118 16.4296C804.472 16.0971 804.891 15.8404 805.35 15.6758C805.809 15.5112 806.297 15.4421 806.783 15.4728C807.256 15.4499 807.728 15.5378 808.16 15.7294C808.592 15.9209 808.973 16.2107 809.271 16.5752C809.618 16.2011 810.045 15.9082 810.52 15.7175C810.996 15.5269 811.508 15.4433 812.02 15.4728C812.478 15.4516 812.936 15.5247 813.364 15.6876C813.792 15.8505 814.182 16.0996 814.508 16.4192C814.826 16.7525 815.074 17.1465 815.234 17.5774C815.395 18.0082 815.465 18.4669 815.442 18.9256V20.9328C815.442 21.328 815.62 21.5256 815.956 21.5256C816.119 21.5331 816.281 21.5156 816.439 21.4736C816.656 21.4736 816.771 21.5568 816.785 21.7232L816.879 23.0232Z" fill="#1D2130"/>
<path d="M693.818 14.3704C694.593 11.2865 696.386 8.54789 698.912 6.59072C701.439 4.63355 704.554 3.57031 707.761 3.57031C710.968 3.57031 714.082 4.63355 716.609 6.59072C719.135 8.54789 720.929 11.2865 721.703 14.3704H720.443C718.319 14.3394 716.238 14.9686 714.493 16.1696C714.392 16.2419 714.287 16.3079 714.178 16.3672H714.031C713.922 16.3079 713.817 16.2419 713.716 16.1696C711.956 14.9964 709.882 14.3698 707.761 14.3698C705.639 14.3698 703.565 14.9964 701.805 16.1696C701.704 16.2419 701.599 16.3079 701.49 16.3672H701.343C701.234 16.3079 701.129 16.2419 701.028 16.1696C699.283 14.9686 697.202 14.3394 695.078 14.3704H693.818ZM718.177 20.8912C718.823 20.3923 719.624 20.1313 720.443 20.1528H722.133V16.8144H720.443C719.001 16.7971 717.591 17.2422 716.424 18.0832C715.767 18.563 714.973 18.8218 714.157 18.8218C713.341 18.8218 712.547 18.563 711.89 18.0832C710.694 17.2578 709.271 16.8154 707.813 16.8154C706.355 16.8154 704.932 17.2578 703.736 18.0832C703.079 18.563 702.285 18.8218 701.469 18.8218C700.653 18.8218 699.859 18.563 699.202 18.0832C698.021 17.2314 696.591 16.7858 695.13 16.8144H693.388V20.1528H695.078C695.897 20.1313 696.698 20.3923 697.345 20.8912C698.539 21.7171 699.96 22.16 701.417 22.16C702.873 22.16 704.294 21.7171 705.489 20.8912C706.136 20.3938 706.937 20.133 707.755 20.1528C708.575 20.1296 709.377 20.3907 710.022 20.8912C711.219 21.7166 712.642 22.1591 714.099 22.1591C715.557 22.1591 716.98 21.7166 718.177 20.8912ZM718.177 26.8608C718.823 26.3619 719.624 26.1009 720.443 26.1224H722.133V22.784H720.443C719.001 22.7667 717.591 23.2118 716.424 24.0528C715.767 24.5326 714.973 24.7914 714.157 24.7914C713.341 24.7914 712.547 24.5326 711.89 24.0528C710.694 23.2274 709.271 22.785 707.813 22.785C706.355 22.785 704.932 23.2274 703.736 24.0528C703.079 24.5326 702.285 24.7914 701.469 24.7914C700.653 24.7914 699.859 24.5326 699.202 24.0528C698.021 23.201 696.591 22.7554 695.13 22.784H693.388V26.1224H695.078C695.897 26.1009 696.698 26.3619 697.345 26.8608C698.539 27.6867 699.96 28.1296 701.417 28.1296C702.873 28.1296 704.294 27.6867 705.489 26.8608C706.136 26.3634 706.937 26.1026 707.755 26.1224C708.575 26.0992 709.377 26.3603 710.022 26.8608C711.219 27.6862 712.642 28.1287 714.099 28.1287C715.557 28.1287 716.98 27.6862 718.177 26.8608Z" fill="#1D2130"/>
</g>
<g opacity="0.6">
<path d="M951.158 9.82273H954.545V23.4727H951.158V9.82273ZM955.895 18.3382C955.895 14.9572 958.005 12.9307 961.171 12.9307C964.336 12.9307 966.446 14.9572 966.446 18.3382C966.446 21.7192 964.41 23.7667 961.171 23.7667C957.931 23.7667 955.895 21.7927 955.895 18.3382ZM963.091 18.3382C963.091 16.4797 962.363 15.3877 961.202 15.3877C960.042 15.3877 959.324 16.4377 959.324 18.3382C959.324 20.2387 960.042 21.2782 961.202 21.2782C962.363 21.2782 963.112 20.2387 963.112 18.3487L963.091 18.3382ZM967.797 24.1762H971.068C971.217 24.5267 971.477 24.819 971.808 25.0086C972.14 25.1982 972.524 25.2746 972.904 25.2262C974.201 25.2262 974.877 24.5332 974.877 23.5042V21.6142H974.887C974.608 22.2027 974.156 22.6933 973.591 23.0212C973.026 23.3492 972.374 23.4993 971.722 23.4517C969.242 23.4517 967.596 21.5722 967.596 18.3382C967.596 15.1042 969.168 13.0882 971.817 13.0882C972.486 13.0526 973.15 13.2243 973.716 13.5798C974.283 13.9352 974.726 14.4568 974.982 15.0727H974.887V13.1722H978.242V23.3992C978.242 25.8667 976.048 27.4102 972.819 27.4102C969.886 27.3997 968.008 26.0662 967.818 24.1867L967.797 24.1762ZM974.887 18.3382C974.887 16.6897 974.127 15.6502 972.925 15.6502C971.722 15.6502 970.983 16.7002 970.983 18.3382C970.983 19.9762 971.711 20.9422 972.925 20.9422C974.138 20.9422 974.887 20.0497 974.887 18.3382ZM979.582 18.3382C979.582 14.9572 981.693 12.9307 984.858 12.9307C988.023 12.9307 990.134 14.9572 990.134 18.3382C990.134 21.7192 988.087 23.7667 984.858 23.7667C981.629 23.7667 979.603 21.7927 979.603 18.3382H979.582ZM986.778 18.3382C986.778 16.4797 986.04 15.3877 984.89 15.3877C983.74 15.3877 983.012 16.4377 983.012 18.3382C983.012 20.2387 983.729 21.2782 984.89 21.2782C986.05 21.2782 986.799 20.2387 986.799 18.3487L986.778 18.3382ZM991.505 10.6837C991.49 10.3404 991.579 10.0005 991.76 9.70786C991.941 9.41517 992.206 9.18306 992.521 9.04139C992.835 8.89971 993.185 8.85495 993.526 8.91286C993.866 8.97077 994.181 9.1287 994.431 9.36634C994.68 9.60398 994.852 9.91045 994.925 10.2463C994.998 10.5822 994.969 10.9321 994.84 11.2511C994.712 11.5701 994.49 11.8435 994.204 12.0361C993.918 12.2288 993.581 12.3319 993.236 12.3322C993.015 12.3378 992.795 12.2997 992.59 12.2202C992.384 12.1406 992.196 12.0212 992.037 11.8688C991.878 11.7164 991.751 11.5341 991.663 11.3325C991.576 11.1308 991.529 10.9139 991.526 10.6942L991.505 10.6837ZM991.505 13.1617H994.934V23.5147H991.558L991.505 13.1617ZM1007.27 18.3382C1007.27 21.7087 1005.75 23.6617 1003.16 23.6617C1002.5 23.7023 1001.84 23.5399 1001.28 23.1963C1000.71 22.8526 1000.27 22.3444 999.999 21.7402H999.936V26.8432H996.549V13.1932H999.914V15.0412H999.978C1000.24 14.4252 1000.68 13.903 1001.24 13.546C1001.81 13.189 1002.47 13.0145 1003.14 13.0462C1005.8 13.0252 1007.33 14.9677 1007.33 18.3487L1007.27 18.3382ZM1003.82 18.3382C1003.82 16.7002 1003.05 15.6397 1001.86 15.6397C1000.66 15.6397 999.914 16.6897 999.904 18.3382C999.893 19.9867 1000.66 21.0262 1001.86 21.0262C1003.05 21.0262 1003.88 20.0497 1003.88 18.3487L1003.82 18.3382ZM1013.05 12.9202C1015.89 12.9202 1017.65 14.2537 1017.67 16.3957H1014.58C1014.58 15.6502 1013.96 15.1882 1013.03 15.1882C1012.1 15.1882 1011.66 15.5452 1011.66 16.0807C1011.66 16.6162 1012.05 16.7842 1012.83 16.9417L1015 17.3827C1017.11 17.8237 1017.96 18.6637 1017.96 20.2282C1017.96 22.3282 1016 23.7562 1013.1 23.7562C1010.2 23.7562 1008.31 22.3702 1008.18 20.2597H1011.46C1011.55 21.0262 1012.16 21.4777 1013.16 21.4777C1014.15 21.4777 1014.61 21.1627 1014.61 20.6062C1014.61 20.0497 1014.3 19.9552 1013.48 19.7872L1011.52 19.3777C1009.48 18.9472 1008.42 17.8867 1008.42 16.3012C1008.48 14.2432 1010.25 12.9307 1013.11 12.9307L1013.05 12.9202ZM1029.3 23.5042H1026.02V21.5617H1025.95C1025.77 22.2096 1025.37 22.7759 1024.82 23.1672C1024.27 23.5585 1023.6 23.7515 1022.93 23.7142C1022.42 23.7308 1021.91 23.6398 1021.44 23.4473C1020.96 23.2547 1020.54 22.9651 1020.19 22.5972C1019.84 22.2293 1019.57 21.7916 1019.4 21.3128C1019.23 20.8339 1019.16 20.3248 1019.2 19.8187V13.1722H1022.59V19.0942C1022.59 20.3122 1023.23 20.9737 1024.29 20.9737C1024.54 20.9719 1024.78 20.9172 1025 20.8134C1025.23 20.7095 1025.43 20.559 1025.59 20.3719C1025.75 20.1848 1025.87 19.9654 1025.94 19.7287C1026.01 19.492 1026.02 19.2434 1025.99 18.9997V13.1722H1029.36L1029.3 23.5042ZM1030.93 13.1617H1034.23V15.1567H1034.3C1034.48 14.5176 1034.87 13.9566 1035.41 13.5614C1035.95 13.1662 1036.6 12.9592 1037.27 12.9727C1037.94 12.9148 1038.6 13.1076 1039.14 13.5134C1039.67 13.9192 1040.04 14.509 1040.16 15.1672H1040.3C1040.52 14.5054 1040.94 13.9315 1041.51 13.5347C1042.08 13.1378 1042.77 12.9403 1043.47 12.9727C1043.93 12.9552 1044.39 13.0352 1044.82 13.2075C1045.25 13.3798 1045.64 13.6405 1045.96 13.9725C1046.29 14.3046 1046.53 14.7005 1046.69 15.1343C1046.85 15.5682 1046.91 16.0303 1046.88 16.4902V23.5147H1043.47V17.3512C1043.47 16.3012 1042.97 15.7132 1042.01 15.7132C1041.8 15.7098 1041.59 15.7521 1041.39 15.8375C1041.2 15.9228 1041.03 16.0491 1040.88 16.2077C1040.74 16.3663 1040.64 16.5534 1040.58 16.7562C1040.51 16.959 1040.5 17.1727 1040.53 17.3827V23.5147H1037.3V17.3197C1037.3 16.2697 1036.78 15.7132 1035.85 15.7132C1035.64 15.7115 1035.42 15.7556 1035.23 15.8426C1035.03 15.9296 1034.85 16.0575 1034.71 16.2176C1034.57 16.3777 1034.46 16.5664 1034.4 16.7709C1034.33 16.9755 1034.32 17.1913 1034.34 17.4037V23.5147H1030.96L1030.93 13.1617Z" fill="#1D2130"/>
<path d="M944.458 10.7153C944.458 8.6255 943.823 6.58437 942.638 4.85928C941.453 3.13419 939.772 1.80558 937.815 1.04748C935.858 0.289369 933.716 0.137117 931.671 0.610659C929.625 1.0842 927.772 2.16146 926.352 3.70133H913.184V31.3583H940.986V18.4328C942.077 17.4615 942.951 16.2722 943.549 14.9424C944.147 13.6126 944.457 12.1723 944.458 10.7153ZM939.108 10.7153C939.11 11.7167 938.814 12.6963 938.256 13.5299C937.699 14.3636 936.905 15.0139 935.976 15.3986C935.047 15.7832 934.024 15.885 933.037 15.6909C932.05 15.4968 931.142 15.0156 930.43 14.3082C929.718 13.6008 929.232 12.6991 929.035 11.717C928.838 10.735 928.938 9.71689 929.323 8.7915C929.708 7.86611 930.359 7.07507 931.196 6.51849C932.032 5.96192 933.016 5.66483 934.022 5.66482C935.369 5.66482 936.661 6.19659 937.615 7.14344C938.568 8.09029 939.105 9.37489 939.108 10.7153ZM935.637 26.0348H918.533V9.02483H923.746C923.645 9.58286 923.592 10.1484 923.587 10.7153C923.59 13.4686 924.69 16.1083 926.647 18.0552C928.603 20.0021 931.256 21.097 934.022 21.0998C934.563 21.097 935.103 21.0513 935.637 20.9633V26.0348Z" fill="#1D2130"/>
</g>
<g opacity="0.6">
<path d="M1176.18 7.63404H1179.34V22.951H1176.18V7.63404Z" fill="#1D2130"/>
<path d="M1181.11 17.704C1181.11 16.602 1181.44 15.5248 1182.05 14.609C1182.66 13.6932 1183.53 12.9799 1184.54 12.5597C1185.56 12.1394 1186.67 12.0311 1187.75 12.2484C1188.82 12.4657 1189.81 12.9989 1190.58 13.7803C1191.36 14.5618 1191.88 15.5564 1192.09 16.638C1192.3 17.7196 1192.19 18.8395 1191.76 19.8558C1191.34 20.8721 1190.62 21.739 1189.71 22.3466C1188.79 22.9543 1187.72 23.2753 1186.62 23.269C1185.89 23.2747 1185.17 23.1345 1184.5 22.8564C1183.83 22.5784 1183.22 22.1682 1182.7 21.6498C1182.19 21.1315 1181.79 20.5155 1181.51 19.8379C1181.24 19.1604 1181.1 18.4349 1181.11 17.704ZM1189.05 17.704C1189.04 17.2289 1188.89 16.7681 1188.61 16.3791C1188.34 15.9901 1187.96 15.6903 1187.52 15.517C1187.08 15.3438 1186.6 15.305 1186.14 15.4053C1185.67 15.5056 1185.25 15.7406 1184.92 16.081C1184.59 16.4214 1184.37 16.852 1184.28 17.319C1184.19 17.786 1184.24 18.2687 1184.43 18.7066C1184.61 19.1445 1184.92 19.5183 1185.31 19.7811C1185.71 20.044 1186.17 20.1843 1186.64 20.1844C1186.97 20.1907 1187.29 20.1302 1187.58 20.0067C1187.88 19.8831 1188.15 19.6992 1188.37 19.4664C1188.6 19.2337 1188.77 18.957 1188.88 18.6537C1189 18.3505 1189.05 18.0272 1189.03 17.704H1189.05Z" fill="#1D2130"/>
<path d="M1204.65 12.457V22.4316C1204.65 25.9508 1201.91 27.4454 1199.14 27.4454C1198.16 27.5261 1197.18 27.3308 1196.3 26.8813C1195.43 26.4319 1194.69 25.7462 1194.19 24.9014L1196.86 23.3538C1197.07 23.792 1197.42 24.1535 1197.84 24.3902C1198.27 24.6269 1198.76 24.7276 1199.24 24.6788C1199.55 24.717 1199.86 24.6862 1200.16 24.5887C1200.45 24.4911 1200.72 24.3292 1200.95 24.1145C1201.18 23.8998 1201.35 23.6376 1201.46 23.3467C1201.58 23.0557 1201.63 22.7433 1201.61 22.4316V21.467C1201.24 21.9157 1200.77 22.2719 1200.24 22.5075C1199.71 22.743 1199.13 22.8513 1198.56 22.8238C1197.16 22.8238 1195.81 22.2654 1194.83 21.2715C1193.84 20.2775 1193.28 18.9295 1193.28 17.5238C1193.28 16.1182 1193.84 14.7701 1194.83 13.7762C1195.81 12.7822 1197.16 12.2238 1198.56 12.2238C1199.13 12.1964 1199.71 12.3047 1200.24 12.5402C1200.77 12.7757 1201.24 13.132 1201.61 13.5806V12.5206L1204.65 12.457ZM1201.61 17.492C1201.63 16.9849 1201.5 16.483 1201.23 16.051C1200.97 15.6189 1200.58 15.2764 1200.12 15.0675C1199.66 14.8586 1199.14 14.7928 1198.65 14.8787C1198.15 14.9645 1197.69 15.1981 1197.32 15.5493C1196.96 15.9005 1196.71 16.3533 1196.6 16.8494C1196.49 17.3456 1196.54 17.8624 1196.72 18.3335C1196.91 18.8046 1197.24 19.2083 1197.66 19.4928C1198.07 19.7773 1198.57 19.9296 1199.07 19.93C1199.4 19.9539 1199.73 19.908 1200.04 19.7954C1200.36 19.6827 1200.64 19.5058 1200.88 19.2761C1201.12 19.0463 1201.3 18.7688 1201.43 18.4615C1201.56 18.1542 1201.61 17.8239 1201.61 17.492Z" fill="#1D2130"/>
<path d="M1206.44 17.704C1206.44 16.6029 1206.76 15.5266 1207.37 14.6112C1207.98 13.6958 1208.85 12.9825 1209.86 12.5616C1210.87 12.1407 1211.99 12.0311 1213.06 12.2467C1214.14 12.4623 1215.12 12.9934 1215.9 13.7727C1216.67 14.5521 1217.2 15.5447 1217.41 16.6249C1217.62 17.7051 1217.51 18.8243 1217.09 19.841C1216.67 20.8577 1215.96 21.7261 1215.05 22.3363C1214.13 22.9465 1213.06 23.2711 1211.97 23.269C1211.24 23.2761 1210.51 23.137 1209.84 22.8597C1209.16 22.5824 1208.55 22.1726 1208.04 21.6542C1207.52 21.1359 1207.12 20.5195 1206.84 19.8412C1206.57 19.1629 1206.43 18.4363 1206.44 17.704ZM1214.37 17.704C1214.36 17.2285 1214.21 16.7672 1213.94 16.378C1213.66 15.9888 1213.28 15.689 1212.84 15.5161C1212.4 15.3432 1211.92 15.305 1211.46 15.4061C1210.99 15.5073 1210.57 15.7434 1210.24 16.0848C1209.91 16.4263 1209.69 16.8579 1209.6 17.3256C1209.52 17.7932 1209.57 18.2762 1209.75 18.7139C1209.94 19.1517 1210.25 19.5247 1210.64 19.7863C1211.04 20.0478 1211.5 20.1863 1211.98 20.1844C1212.3 20.1907 1212.62 20.1302 1212.92 20.0067C1213.21 19.8831 1213.48 19.6992 1213.71 19.4664C1213.93 19.2337 1214.1 18.957 1214.22 18.6537C1214.33 18.3505 1214.38 18.0272 1214.36 17.704H1214.37Z" fill="#1D2130"/>
<path d="M1218.96 9.64798C1218.96 9.27481 1219.07 8.91001 1219.28 8.59973C1219.48 8.28944 1219.78 8.04761 1220.12 7.9048C1220.46 7.76199 1220.84 7.72463 1221.21 7.79743C1221.57 7.87023 1221.91 8.04994 1222.17 8.31381C1222.43 8.57768 1222.61 8.91388 1222.68 9.27988C1222.75 9.64589 1222.72 10.0253 1222.57 10.37C1222.43 10.7148 1222.19 11.0095 1221.88 11.2168C1221.57 11.4241 1221.21 11.5348 1220.84 11.5348C1220.34 11.5293 1219.87 11.3287 1219.52 10.9761C1219.17 10.6234 1218.97 10.1467 1218.96 9.64798ZM1219.27 12.457H1222.43V22.951H1219.27V12.457Z" fill="#1D2130"/>
<path d="M1235.98 17.7041C1236.02 18.402 1235.91 19.1 1235.68 19.7581C1235.45 20.4161 1235.08 21.0212 1234.62 21.5384C1234.15 22.0556 1233.58 22.4748 1232.95 22.7718C1232.32 23.0688 1231.64 23.2378 1230.95 23.2691C1230.36 23.3085 1229.77 23.2136 1229.22 22.9915C1228.67 22.7694 1228.18 22.4259 1227.78 21.9865V27.1699H1224.62V12.4571H1227.78V13.4429C1228.18 13.0048 1228.67 12.6628 1229.22 12.4425C1229.77 12.2222 1230.36 12.1294 1230.95 12.1709C1231.64 12.2022 1232.32 12.3701 1232.95 12.6651C1233.57 12.9602 1234.14 13.3765 1234.6 13.8903C1235.07 14.4041 1235.43 15.0053 1235.67 15.6597C1235.91 16.3141 1236.01 17.0087 1235.98 17.7041ZM1232.82 17.7041C1232.8 17.2117 1232.65 16.7341 1232.36 16.3309C1232.08 15.9278 1231.69 15.6171 1231.23 15.4378C1230.78 15.2585 1230.28 15.2185 1229.8 15.323C1229.32 15.4274 1228.88 15.6716 1228.54 16.0249C1228.2 16.3782 1227.97 16.8249 1227.88 17.3091C1227.79 17.7932 1227.84 18.2932 1228.03 18.7464C1228.23 19.1997 1228.55 19.5859 1228.96 19.8568C1229.37 20.1277 1229.85 20.2712 1230.34 20.2693C1230.67 20.2836 1231.01 20.2264 1231.32 20.1016C1231.63 19.9767 1231.91 19.7869 1232.15 19.5447C1232.38 19.3025 1232.56 19.0133 1232.68 18.6961C1232.79 18.3789 1232.84 18.0408 1232.82 17.7041Z" fill="#1D2130"/>
<path d="M1245.61 19.8028C1245.61 22.2196 1243.5 23.2478 1241.27 23.2478C1240.35 23.3303 1239.44 23.136 1238.64 22.6901C1237.84 22.2441 1237.19 21.567 1236.77 20.7462L1239.49 19.1986C1239.6 19.5768 1239.84 19.9064 1240.16 20.1322C1240.48 20.3579 1240.87 20.4662 1241.26 20.4388C1242.01 20.4388 1242.39 20.2056 1242.39 19.7816C1242.39 18.6262 1237.25 19.241 1237.25 15.6052C1237.25 13.3156 1239.17 12.1708 1241.34 12.1708C1242.17 12.1336 1242.99 12.322 1243.72 12.7158C1244.44 13.1095 1245.05 13.6941 1245.48 14.4074L1242.75 15.849C1242.63 15.5755 1242.44 15.3429 1242.19 15.1793C1241.94 15.0156 1241.65 14.9279 1241.35 14.9268C1240.8 14.9268 1240.48 15.1388 1240.48 15.5098C1240.48 16.7182 1245.61 15.9232 1245.61 19.8028Z" fill="#1D2130"/>
<path d="M1257.08 12.4571V22.9511H1253.92V21.9653C1253.56 22.4016 1253.1 22.747 1252.58 22.9734C1252.07 23.1999 1251.51 23.3012 1250.94 23.2691C1248.83 23.2691 1247.03 21.7533 1247.03 18.9231V12.4571H1250.19V18.4461C1250.17 18.6965 1250.2 18.9493 1250.28 19.1871C1250.36 19.4249 1250.49 19.642 1250.67 19.8234C1250.84 20.0048 1251.05 20.1462 1251.28 20.2379C1251.52 20.3295 1251.77 20.3691 1252.02 20.3541C1253.16 20.3541 1253.96 19.6757 1253.96 18.2341V12.4571H1257.08Z" fill="#1D2130"/>
<path d="M1275.02 16.5062V22.951H1271.85V16.7818C1271.85 15.7218 1271.36 15.0646 1270.36 15.0646C1269.35 15.0646 1268.72 15.796 1268.72 17.0362V22.951H1265.56V16.7818C1265.56 15.7218 1265.06 15.0646 1264.06 15.0646C1263.05 15.0646 1262.42 15.796 1262.42 17.0362V22.951H1259.26V12.457H1262.42V13.4216C1262.75 12.9954 1263.18 12.658 1263.67 12.4396C1264.16 12.2212 1264.69 12.1288 1265.23 12.1708C1265.76 12.1428 1266.3 12.255 1266.78 12.4966C1267.26 12.7382 1267.66 13.1008 1267.96 13.5488C1268.31 13.0808 1268.77 12.7089 1269.3 12.4679C1269.83 12.2269 1270.41 12.1247 1270.99 12.1708C1273.46 12.1708 1275.02 13.888 1275.02 16.5062Z" fill="#1D2130"/>
<path d="M1157.32 4.87805V0.373047H1143.18V31.325H1157.32V26.82C1154.43 26.82 1151.65 25.6642 1149.6 23.6067C1147.55 21.5492 1146.4 18.7587 1146.4 15.849C1146.4 12.9394 1147.55 10.1488 1149.6 8.09138C1151.65 6.03392 1154.43 4.87805 1157.32 4.87805Z" fill="#1D2130"/>
<path d="M1157.32 4.87805V26.82C1160.22 26.82 1163 25.6642 1165.04 23.6067C1167.09 21.5493 1168.24 18.7587 1168.24 15.849C1168.24 12.9394 1167.09 10.1488 1165.04 8.09138C1163 6.03392 1160.22 4.87805 1157.32 4.87805Z" fill="#1D2130"/>
<path d="M1277.68 12.3934C1278.96 12.3934 1280 11.3493 1280 10.0614C1280 8.77349 1278.96 7.72942 1277.68 7.72942C1276.4 7.72942 1275.36 8.77349 1275.36 10.0614C1275.36 11.3493 1276.4 12.3934 1277.68 12.3934Z" fill="#1D2130"/>
</g>
</svg>
